<svg xmlns="http://www.w3.org/2000/svg" viewBox="0 0 500 500"><g id="freepik--Pictures--inject-103"><g id="freepik--Picture--inject-103"><g id="freepik--Frame--inject-103"><polygon points="28.89 84.65 30.78 85.78 69.63 63.35 67.74 62.22 28.89 84.65" style="fill:#fafafa"></polygon><polygon points="67.74 62.22 30.78 83.55 30.78 44.85 67.74 23.53 67.74 62.22" style="fill:#fff"></polygon><path d="M73.21,16.23l-46,26.56V92l46-26.56ZM69.63,63.35,30.78,85.78V44.85L69.63,22.42Z" style="fill:#f0f0f0"></path><polygon points="69.63 63.35 67.74 62.22 67.74 23.53 69.63 22.42 69.63 63.35" style="fill:#e0e0e0"></polygon><polygon points="73.2 16.23 71.28 15.13 25.29 41.69 27.21 42.79 73.2 16.23" style="fill:#fafafa"></polygon><polygon points="25.29 41.69 27.21 42.79 27.21 91.97 25.29 90.87 25.29 41.69" style="fill:#e0e0e0"></polygon></g><g id="freepik--Land--inject-103"><polygon points="66.3 61.06 32.23 80.73 32.23 70.9 40.74 51.23 46.05 56.15 44.14 64.39 55.91 39.23 66.3 51.23 66.3 61.06" style="fill:#f0f0f0"></polygon><path d="M45.73,41.73a5.57,5.57,0,0,0-2.52,4.36c0,1.61,1.13,2.26,2.52,1.46a5.57,5.57,0,0,0,2.52-4.37C48.25,41.58,47.12,40.93,45.73,41.73Z" style="fill:#f0f0f0"></path></g></g><g id="freepik--picture--inject-103"><g id="freepik--frame--inject-103"><polygon points="28.89 149.22 30.78 150.35 69.63 127.92 67.74 126.79 28.89 149.22" style="fill:#fafafa"></polygon><polygon points="67.74 126.79 30.78 148.12 30.78 109.42 67.74 88.11 67.74 126.79" style="fill:#fff"></polygon><path d="M73.21,80.81l-46,26.55v49.18l46-26.56Zm-3.58,47.11L30.78,150.35V109.42L69.63,87Z" style="fill:#f0f0f0"></path><polygon points="69.63 127.92 67.74 126.79 67.74 88.11 69.63 86.99 69.63 127.92" style="fill:#e0e0e0"></polygon><polygon points="73.2 80.81 71.28 79.71 25.29 106.26 27.21 107.36 73.2 80.81" style="fill:#fafafa"></polygon><polygon points="25.29 106.26 27.21 107.36 27.21 156.54 25.29 155.44 25.29 106.26" style="fill:#e0e0e0"></polygon></g><g id="freepik--land--inject-103"><polygon points="66.3 125.64 32.23 145.31 32.23 135.47 40.74 115.8 46.05 120.72 44.14 128.96 55.91 103.8 66.3 115.8 66.3 125.64" style="fill:#f0f0f0"></polygon><path d="M45.73,106.3a5.59,5.59,0,0,0-2.52,4.37c0,1.6,1.13,2.25,2.52,1.45a5.57,5.57,0,0,0,2.52-4.36C48.25,106.15,47.12,105.5,45.73,106.3Z" style="fill:#f0f0f0"></path></g></g></g><g id="freepik--Window--inject-103"><g id="freepik--window--inject-103"><polygon points="333.1 157.1 467.72 234.82 467.72 105.04 333.1 27.34 333.1 157.1" style="fill:#fff"></polygon><polygon points="470.37 236.35 467.73 237.93 330.46 158.68 333.1 157.1 470.37 236.35" style="fill:#fafafa"></polygon><path d="M325.48,161.55l147.23,85V102.16l-147.23-85Zm5-135.76L467.72,105V237.93L330.46,158.68Z" style="fill:#f0f0f0"></path><polygon points="330.46 158.68 333.1 157.1 333.1 27.34 330.46 25.79 330.46 158.68" style="fill:#e0e0e0"></polygon><polygon points="325.48 17.16 328.16 15.63 475.38 100.63 472.7 102.17 325.48 17.16" style="fill:#fafafa"></polygon><polygon points="475.38 100.63 472.7 102.17 472.7 246.55 475.38 245.02 475.38 100.63" style="fill:#e0e0e0"></polygon><polygon points="465.53 133.94 465.53 137.03 330.46 58.95 333.1 57.38 465.53 133.94" style="fill:#fafafa"></polygon><polygon points="403.34 67.88 400.66 66.33 400.66 199.23 403.34 197.69 403.34 67.88" style="fill:#e0e0e0"></polygon><polygon points="395.68 63.47 400.66 66.33 400.66 199.23 395.68 196.34 395.68 63.47" style="fill:#f0f0f0"></polygon><polygon points="330.46 58.95 330.46 64.69 467.78 144.27 467.78 138.53 330.46 58.95" style="fill:#f0f0f0"></polygon><polygon points="400.66 99.63 403.34 97.98 467.73 135.2 467.73 138.53 400.66 99.63" style="fill:#fafafa"></polygon></g></g><g id="freepik--Character--inject-103"><g id="freepik--character--inject-103"><polygon points="58.42 381.52 58.42 404.93 206.93 490.77 206.93 467.37 58.42 381.52" style="fill:#37474f"></polygon><polygon points="206.93 467.37 466.05 317.75 466.05 341.15 206.93 490.77 206.93 467.37" style="fill:#455a64"></polygon><g id="freepik--Chair--inject-103"><path d="M260.57,335c.31-4.15-3-8.88-10.29-14.5-13.49-10.36-57.37-38.27-76.41-50.9a.2.2,0,0,0-.16-.17c-14.59-10.53-17.86-82.66-25.8-117.17a62.38,62.38,0,0,0-1.72-6.37c-.06-.16-.11-.31-.16-.46-.16-.46-.32-.94-.5-1.42-.08-.23-.16-.48-.25-.71h0c-1.43-3.76-3.48-7.91-6.27-10.8a15.9,15.9,0,0,0-3.28-2.72c-1.65-1.11-5.67-3.12-6.53-3.72-9.92-7.06-35.09,10.86-52.86,18.83-11,5-20.63,11.13-27.15,23.55h0c-3.13,5.95-5.55,13.36-7.11,22.73C39.14,208.8,39.72,268,41.28,294v0c1.79,43.36,8.19,43.95,16.92,51.88,15,13.64,59.12,41.55,73.84,48.74,26.68,13,49.4-1.33,66.11-9.92,24.1-12.38,46.24-26.2,53.72-31.12,4.35-2.85,7.85-7.34,8.06-10.59C260,341.63,260.46,336.36,260.57,335Z" style="fill:#263238"></path><path d="M199.18,376c21.92-11.8,46.83-26.14,54.3-32.13,9.24-7.41,9.79-13.34-3.19-23.31-18-13.85-86.88-57.83-86.88-57.83S77.38,304.14,57,322.24c-3.08,2.74-3.21,8.54-2.13,9.88,11.17,14,60.92,46.2,77.8,54.44C159.35,399.6,182.64,384.85,199.18,376Z" style="fill:#455a64"></path><path d="M135.72,129.78l-.28-.16a15.06,15.06,0,0,0-7.37-2.31c-9-.72-23.25,5.58-44.57,19.36-6.08,3.92-12.74,8.53-18.28,14l-.33.31a43.79,43.79,0,0,0-4.67,5.24c-.24.3-.47.61-.7.93s-.27.35-.38.53c-.3.42-.59.84-.87,1.28-.56.86-1.11,1.77-1.64,2.7a2.19,2.19,0,0,0-.17.29l-.61,1.14-.05,0-6.62-4.59C55.7,156,65.72,149.64,76,143.31c17.77-10.9,37.58-25.07,50.18-19C127.18,124.82,134.07,128.67,135.72,129.78Z" style="fill:#455a64"></path><path d="M147.91,152.26c-1.14-4.54-5.13-24.17-19.85-24.95-9-.72-23.25,5.59-44.56,19.35-9.92,6.41-21.37,14.63-27,25.25-8.36,13.19-9.66,49.8-9.17,85s2.77,69,7.53,75.24c8.38-23.48,107.31-69.7,118.89-62.72C159.12,258.9,155.85,186.77,147.91,152.26Z" style="fill:#37474f"></path></g><g id="freepik--Bottom--inject-103"><path d="M75.61,258.5c-5.45,21.6-5,42.16-2.73,51.4,2.76,11.31,9.63,25.16,31.2,37.86,30.68,18.05,52,30,52,30l101.6-66.21-67.51-46.29Z" style="fill:#67C38D"></path><path d="M75.61,258.5c-5.45,21.6-5,42.16-2.73,51.4,2.76,11.31,9.63,25.16,31.2,37.86,30.68,18.05,52,30,52,30l101.6-66.21-67.51-46.29Z" style="opacity:0.1"></path><path d="M106.71,327.21c-.83-.9-1.62-1.79-2.39-2.69,7.65-2,12.16-11.53,11.21-22.27-.55-6.16-1.17-13.14-.34-19.74l-1.34-.17c-.85,6.75-.22,13.81.33,20,1,10.82-3.61,19.58-10.85,21-14.66-17.55-12.38-34.6-5.24-57.24l-1.29-.4c-7.82,24.81-9,43,8.92,62.41,11.79,12.74,43.93,30.14,62.74,41.74l1.26-.81C151,357.51,118.52,340,106.71,327.21Z" style="opacity:0.35000000000000003"></path><path d="M188.73,290.84c-4.09,13.17-12.6,19.45-12.6,19.45,15.92,11.59,29,22.35,38.09,30.26l11.13-7.14-39.11-26.25C190.8,297.83,188.73,290.84,188.73,290.84Z" style="opacity:0.35000000000000003"></path></g><g id="freepik--Desk--inject-103"><polygon points="206.93 458.5 52.46 369.24 316.53 216.78 470.99 306.04 206.93 458.5" style="fill:#67C38D"></polygon><polygon points="206.93 458.5 52.46 369.24 316.53 216.78 470.99 306.04 206.93 458.5" style="fill:#fff;opacity:0.8"></polygon><polygon points="52.46 369.24 52.46 381.65 206.93 470.91 206.93 458.5 52.46 369.24" style="fill:#67C38D"></polygon><polygon points="52.46 369.24 52.46 381.65 206.93 470.91 206.93 458.5 52.46 369.24" style="fill:#fff;opacity:0.5"></polygon><polygon points="206.93 470.91 471 318.45 470.99 306.04 206.93 458.5 206.93 470.91" style="fill:#67C38D"></polygon><polygon points="206.93 458.5 470.99 306.04 471 318.45 206.93 470.91 206.93 458.5" style="fill:#fff;opacity:0.65"></polygon></g><g id="freepik--Top--inject-103"><path d="M193.37,133.47c15.15,1.1,31.12,24.36,51.68,52.81C259.22,205.9,270.8,253,270.8,253s-12.07,5.53-35.19-17.71c-22.89-23-51.62-54.52-51.62-54.52Z" style="fill:#9a4a4d"></path><path d="M175.27,127.91c12.27-1.18,28.25,4.6,37.85,15.49s31.93,42.24,31.93,42.24-2.25,8.09-10.5,19-17.06,13-17.06,13l-35.18-37.19Z" style="fill:#67C38D"></path><path d="M175.27,127.91c12.27-1.18,28.25,4.6,37.85,15.49s31.93,42.24,31.93,42.24-2.25,8.09-10.5,19-17.06,13-17.06,13l-35.18-37.19Z" style="fill:#fff;opacity:0.5"></path><path id="freepik--Chest--inject-103" d="M199.53,135.79c-9-3.71-17.29-8.47-29.09-7.88s-38.65,10.32-53.19,17.19c-11.66,8.34-24.69,13-35.85,57.16-5.56,22-12.92,81-11.53,97.05,15.09,11.3,38.43,13.3,59.75,8.82,38.81-8.16,62.45-31.69,63.74-40.66-1-7.24,3.49-30.37,8.89-47.83,6.27-20.23,9.67-31.86,11.33-46.46C215,160.35,214.12,141.78,199.53,135.79Z" style="fill:#f0f0f0"></path><path d="M231,128.91s-1.09-.51-1.44-2.77-.18-3.84-.53-6.37-1.52-6.72-3.91-7.13-3.48,4.94-3.49,9.26,0,6.88-2.87,11.79-3.84,11.2-.72,16.63Z" style="fill:#9a4a4d"></path><path d="M234,201.54c3.32,17.2,3.62,21.2,5.5,27.71s4.08,10.05,8.59,14.12a40,40,0,0,0,15.1,9.14,12.9,12.9,0,0,0,5.65,1c4.81-.55,6.64-4.81,7.77-9.78,2.3-10,2.19-18.62-.43-27.13-1.24-4-2-5.8-6.94-16-4-8.3-7.3-14.24-12.58-26.39-4.79-11-8.95-21.71-10.17-28.08s-1.26-10.74-.28-14.3c1.5-5.43,2.37-5.26.5-11.63-1.38-4.2-1.33-9.52-1.84-12.88a36.21,36.21,0,0,0-3.1-9.51c-1.48-3.32-2.65-7.68-3.89-8.1s-3.27,1-3.12,3.61c0,0-1.65-1.92-3.06-3.92s-2.39-4.52-4.33-4.93-2.81,2.61-2.08,4.7,1.28,3.27,1.28,3.27-1.87.88-.13,4.62a19.28,19.28,0,0,0,2.76,4.19c.69,2.88.84,4.31,2.34,6.66.89,2.72,1.4,5,2.71,7.24-.63,2-2.22,4.4-2.12,7.85s.69,4.25-3.27,8.47c-2.67,2.84-7.26,6.12-9.74,10s-2.66,7-.38,11.3c1.94,3.68,6,6.31,8.1,13.79C228.45,172.44,229.91,180.45,234,201.54Z" style="fill:#b16668"></path><path d="M234.73,93.27a20.76,20.76,0,0,0,1.09,3.43c.45,1.1,1,2.2,1.49,3.23l.08.16,0,.23a14.76,14.76,0,0,0-.09,1.9,13.89,13.89,0,0,0,.2,1.92,11.81,11.81,0,0,0,1.23,3.63l.15.28-.11.24a9,9,0,0,0-.5,1.38,12.25,12.25,0,0,0-.35,1.48,12.86,12.86,0,0,0-.18,1.52,13.73,13.73,0,0,0,0,1.57,9.07,9.07,0,0,1-.59-3.15,9.86,9.86,0,0,1,.12-1.63,10,10,0,0,1,.39-1.62l0,.52a10.58,10.58,0,0,1-1.58-4,10.89,10.89,0,0,1-.19-2.13,10.09,10.09,0,0,1,.22-2.16l0,.39A20.39,20.39,0,0,1,235,96.94,11.65,11.65,0,0,1,234.73,93.27Z" style="fill:#9a4a4d"></path><path d="M226.54,92.39A10.73,10.73,0,0,0,227.89,94a14.08,14.08,0,0,0,1.57,1.27l.11.08.06.19a15.73,15.73,0,0,0,1.76,3.9,11.31,11.31,0,0,0,2.8,3.12l.35.27-.09.43a12.41,12.41,0,0,0-.2,2.33,19.83,19.83,0,0,0,.16,2.43c.13.81.27,1.62.48,2.43s.47,1.6.72,2.42a14.53,14.53,0,0,1-1.29-2.23,14,14,0,0,1-1.32-5,10.16,10.16,0,0,1,.12-2.68l.27.69a9.48,9.48,0,0,1-1.78-1.62,11.12,11.12,0,0,1-1.36-1.94,13.45,13.45,0,0,1-.95-2.13,12.21,12.21,0,0,1-.54-2.26l.17.26a8.45,8.45,0,0,1-1.42-1.64A6.85,6.85,0,0,1,226.54,92.39Z" style="fill:#9a4a4d"></path><path d="M235.35,119.71a9.81,9.81,0,0,1-1.08,4.46,14.45,14.45,0,0,1-2.7,3.74c.31-.71.69-1.37,1-2s.71-1.32,1-2A33.28,33.28,0,0,0,235.35,119.71Z" style="fill:#9a4a4d"></path><path d="M222.32,137.28a18.69,18.69,0,0,0-.8,8.1,14.79,14.79,0,0,0,1.11,3.86,31,31,0,0,0,2,3.68,11.25,11.25,0,0,1-3-3.2,10.86,10.86,0,0,1,.66-12.44Z" style="fill:#9a4a4d"></path><g id="freepik--Head--inject-103"><path d="M152.49,121.79c.46-9.44-6.51-20.94-8.84-29.78-2.24-8.52-3.28-15-1.24-22.07,1.2-4.21,5.16-9.39,8.59-9.91-.17-16.64,13.34-21.38,20-21.49a68.5,68.5,0,0,0,9.27-.51c3.75-.68,5.13-3.26,8.42-5,5.65-3,13.7-1.32,15.4,5.47,4.08-3.4,8.35-2.34,13,0a8.68,8.68,0,0,1,4.38,11c7.47-2.25,12.53,3.78,12.28,7.82-.19,3-1.34,5.28,0,8.28,1.48,3.37,5.51,4.21,7.25,2.13-.22,4.24-2.51,7-6.9,5.8a9.55,9.55,0,0,1-.56,8.07,8.67,8.67,0,0,1-9,4.16c-1,2.15-1.52,4.18-3.36,5.81A15,15,0,0,1,215,95.17c-7.43,1.72-15.09,1.12-22.66,1l-9-.12c-.52,0-3.15-.42-3.56,0Z" style="fill:#263238"></path><path d="M144.05,107.59c5.56,5.23,10.81,2,10.81,2l-6.12,25.86c3.49,16.57,24.29,34.61,35.95,38.64,2.28-6.83,1.58-23.13.74-30.67l1.63-4.79A90.68,90.68,0,0,0,198,140.59c7.36.59,14-4,17.75-11.29,3.91-7.61,7.25-20.38,7.63-30.45a27.42,27.42,0,0,1,1.27-7.58c2.15-6.49,1.8-10.62,1.32-16.57-6.46-8.06-24.15-14.22-43.37-7.66-.26,10.51-5.94,17.64-14.12,19.86-.26,2.8-1.44,9.75-5.89,8.64-3.2-.81-2.52-4.9-5-9.19s-10-6.95-14.19-2.36C137.56,90.42,138,101.85,144.05,107.59Z" style="fill:#b16668"></path><path d="M198,140.59a16.44,16.44,0,0,0,9.25-2.45,20.67,20.67,0,0,0,6.73-6.75,46.63,46.63,0,0,0,4-8.79,89.1,89.1,0,0,0,2.69-9.35,86.1,86.1,0,0,0,1.75-9.57c.21-1.6.32-3.22.41-4.84a28.29,28.29,0,0,1,.62-4.93c.33-1.64,1-3.19,1.4-4.73a29.48,29.48,0,0,0,1-4.73,54.7,54.7,0,0,0,.1-9.75,48.69,48.69,0,0,1,.49,9.81,28.81,28.81,0,0,1-.85,4.88c-.41,1.61-1,3.12-1.23,4.7a35,35,0,0,0-.48,4.79c-.07,1.65-.17,3.3-.37,4.93a81.9,81.9,0,0,1-1.67,9.72A89,89,0,0,1,219,123a42.6,42.6,0,0,1-4.28,8.93,21.4,21.4,0,0,1-7.22,6.75A16.09,16.09,0,0,1,198,140.59Z" style="fill:#9a4a4d"></path><path d="M211.52,110.23l-11.2,2.09L201,89.43C205,92.23,208.73,100.83,211.52,110.23Z" style="fill:#9a4a4d"></path><path d="M194.64,118.48l-.18-.3a5.93,5.93,0,0,0-1.34-1.49,6.25,6.25,0,0,0-1.57-.93,8.92,8.92,0,0,0-2.85-.57,4.84,4.84,0,0,0-2.28.41,1.14,1.14,0,0,0-.38.25.44.44,0,0,0-.1.42c.08.22.35.29.58.33a20.74,20.74,0,0,1,3.63,1,8,8,0,0,1,3,1.71c.44.43.83.9,1.26,1.34.15.16.37.49.61.4s.21-.5.2-.69A4.65,4.65,0,0,0,194.64,118.48Z" style="fill:#9a4a4d"></path><path d="M187.06,138.68c-11-3.83-19.36-7-23.45-16.47-2.56-6-3.86-14.92-3.86-14.92s-1.05,10.28,1.15,17.89c1.69,5.86,7.41,12,24.83,17.42Z" style="fill:#9a4a4d"></path><path d="M191.58,97.94a6.27,6.27,0,0,1-1.63.55,6.45,6.45,0,0,1-1.91.11,7.79,7.79,0,0,1-1.78-.47,6.58,6.58,0,0,1-.94-.42,3.48,3.48,0,0,1-.71-.62c-.12-.13-.17.16-.13.23a4.51,4.51,0,0,0,3.41,2.12,4.29,4.29,0,0,0,2.25-.09A3,3,0,0,0,191.61,98S191.63,97.91,191.58,97.94Z" style="fill:#9a4a4d"></path><path d="M217.87,101a1.79,1.79,0,0,1-.46.09,3.74,3.74,0,0,0-.45.12,5.35,5.35,0,0,1-.79.19,4.85,4.85,0,0,1-1.74-.06,6.89,6.89,0,0,1-1.93-.66A13.58,13.58,0,0,1,211,99.6c-.08,0-.12.11-.1.17.56,1.36,2.25,2.16,3.62,2.41a5.38,5.38,0,0,0,2,0,2,2,0,0,0,.83-.3c.3-.21.37-.48.57-.77C217.94,101.1,218,100.93,217.87,101Z" style="fill:#9a4a4d"></path><path d="M197.59,80.7a2.39,2.39,0,0,0-1.21-1,2.33,2.33,0,0,0-1.22-.16c-.14,0-.21,0-.27.18A.25.25,0,0,0,195,80a.46.46,0,0,0,.28.11l.41.1a2.87,2.87,0,0,1,.64.23,1.12,1.12,0,0,1,.22.16.39.39,0,0,1,.1.08l.05.06a.86.86,0,0,1,.07.1s0,0,0,0l0,.06a.85.85,0,0,1,.09.22c0-.06,0,0,0,.05s0,.08,0,.12v.09a.77.77,0,0,0,0,.15v0s0,0,0,0l0,.12-.12.29a4.23,4.23,0,0,1-.23.48.85.85,0,0,0-.06.17s0,.12,0,.14-.09.23-.11.36.09.43.29.39a1.56,1.56,0,0,0,.39-.19,1.61,1.61,0,0,0,.31-.19l.17-.18a1.38,1.38,0,0,0,.2-.33,1.3,1.3,0,0,0,.14-.32A2.11,2.11,0,0,0,197.59,80.7Z" style="fill:#9a4a4d"></path><path d="M193.43,92.81c-.25-1.8-2,1.12-4.19,1.43s-4.17-2.11-3.93-.32,2.26,3,4.51,2.7S193.68,94.61,193.43,92.81Z" style="fill:#263238"></path><path d="M218.3,97.87c.75-1.65-2.08,0-4-.86s-2.08-3.86-2.83-2.21a3.75,3.75,0,0,0,6.78,3.07Z" style="fill:#263238"></path><path d="M213.2,83l5.5,5.84a3.86,3.86,0,0,1-5.58-.07A4.18,4.18,0,0,1,213.2,83Z" style="fill:#263238"></path><path d="M192.72,81.1,185,83.61a3.92,3.92,0,0,0,5,2.66A4.23,4.23,0,0,0,192.72,81.1Z" style="fill:#263238"></path><path d="M198,118.16c-1.84.83-2.35-1.3-5-2.91s-5-.73-4.76-2.8c.15-1.73,3.26-4.33,7.83-2C199.91,112.47,199.6,117.43,198,118.16Z" style="fill:#b16668"></path></g></g><g id="freepik--Laptop--inject-103"><g id="freepik--laptop--inject-103"><path d="M369.12,311.42l-69.35-40a4,4,0,0,0-4,0L175.47,340.86a.89.89,0,0,0,0,1.54l70,40.42Z" style="fill:#67C38D;opacity:0.2"></path><path d="M363.94,303v1.56a6.41,6.41,0,0,1-3.2,5.55L248.67,374.8a6.43,6.43,0,0,1-6.41,0l-61.09-35.15a6.44,6.44,0,0,1-3.19-5.55v-2.16h0v0a.81.81,0,0,0,.41.71l67.08,38.74Z" style="fill:#37474f"></path><path d="M364,303,297.5,264.62a3.83,3.83,0,0,0-3.82,0L178.4,331.19a.85.85,0,0,0,0,1.47l67.07,38.73Z" style="fill:#455a64"></path><polygon points="244.86 365.75 209.02 345.08 313.82 284.57 349.85 305.13 244.86 365.75" style="fill:#37474f"></polygon><polygon points="349.85 305.13 348.48 305.92 313.82 286.15 210.4 345.87 209.03 345.08 313.82 284.57 349.85 305.13" style="fill:#263238"></polygon><polygon points="227.25 308.25 227.91 308.63 245.47 318.77 276.71 300.73 277.37 300.36 259.14 289.84 227.25 308.25" style="fill:#263238"></polygon><polygon points="227.91 308.63 245.47 318.77 276.71 300.73 259.14 290.59 227.91 308.63" style="fill:#37474f"></polygon><path d="M245.47,371.39v4.26a6.42,6.42,0,0,0,3.2-.85l112.07-64.7a6.42,6.42,0,0,0,3.21-5.56V303Z" style="fill:#263238"></path></g><g id="freepik--Arm--inject-103"><path d="M95.77,260.38c-4.93-39.06-7.5-61.48-6.24-82.45.69-11.5,16.47-26,27.39-30.41C133,156.27,134.85,183,136,200l4.3,57.62s14.72,9.87,29.42,18.13c12.42,7,20,12.17,26.09,12.68,13.62,1.13,24.09,0,31.49,2.22,3.93,1.17,12.91,3.9,16,5s8.94,5.75,14.19,8.71c5,3.06-.44,5.76-4.09,5.16-4.76-.79-7.85-2.46-11.21-3.85-3.18-1.31-6.26-1.58-9.51-2.37a54.14,54.14,0,0,1,3.22,10.37c.25,1.93,1,4.23-.56,5.85-.85.92-2.77,1.63-3.85,2.17a3,3,0,0,1-.57,2,4.89,4.89,0,0,1-3.34,1.3,14.78,14.78,0,0,1-2-.05,3.62,3.62,0,0,1-1.84,3.06,15.64,15.64,0,0,1-8.23,1.28c-.42-.11-3.7-1.39-4.66-1.75-1.38-.53-2.6-.77-3.27-1.55s.81-3.48,2.37-3.92a16.53,16.53,0,0,1,5.3-.3,18.35,18.35,0,0,1-2.1-4.34c-1.71-2.13-11.76,1.47-21.14,1-7.08-.35-15.52-7.85-18.8-8.87-21.06-6.57-38.65-10.85-60.65-19.71C98,284,98.41,281.26,95.77,260.38Z" style="fill:#b16668"></path><path d="M234.56,303.75c-1.38-2.48-3.4-5.4-5.48-5.89,1.32,1.16,3.17,4.59,3.61,5.49C233.32,303.51,233.94,303.63,234.56,303.75Z" style="fill:#9a4a4d"></path><path d="M231.5,321.74A22,22,0,0,0,231,316a53.69,53.69,0,0,0-1.43-5.58,25.32,25.32,0,0,0-2.22-5.35,10.46,10.46,0,0,0-4-4.15,8.11,8.11,0,0,1,1.84,2.12,16.74,16.74,0,0,1,1.39,2.43,39.53,39.53,0,0,1,1.92,5.29c.58,1.8,1.11,3.62,1.65,5.43A47.55,47.55,0,0,1,231.5,321.74Z" style="fill:#9a4a4d"></path><path d="M225.59,325a27.06,27.06,0,0,0-.68-5.61,46.84,46.84,0,0,0-1.52-5.45,38.36,38.36,0,0,0-2.18-5.22c-.9-1.63-1.79-3.46-3.45-4.46a7.33,7.33,0,0,1,1.55,2.27c.41.83.79,1.68,1.12,2.54.68,1.72,1.33,3.47,1.92,5.23C223.55,317.78,224.7,321.31,225.59,325Z" style="fill:#9a4a4d"></path><path d="M210,322.08a9.61,9.61,0,0,1,2.35,0c.77.09,1.35.4,2.32.59l-.45-.57a2.29,2.29,0,0,0,.29,1.1,2.76,2.76,0,0,0,.63.8,3.41,3.41,0,0,0,1.7.84,8.33,8.33,0,0,1-1.12-1.33,3.63,3.63,0,0,1-.32-.7,2.19,2.19,0,0,1-.11-.64v-.43l-.47-.13a6.9,6.9,0,0,0-2.24-.2A4.73,4.73,0,0,0,210,322.08Z" style="fill:#9a4a4d"></path><path d="M117.25,145.1c-16.74,6.22-29.16,18.47-29.7,35.84-.55,18,5.06,65.67,5.06,65.67s9.39,5.75,24.76,3.54c18.94-2.73,22.93-10.22,22.93-10.22s-2.78-29.15-3.07-40.48C136.77,181.85,134.87,151.87,117.25,145.1Z" style="fill:#67C38D"></path><path d="M117.25,145.1c-16.74,6.22-29.16,18.47-29.7,35.84-.55,18,5.06,65.67,5.06,65.67s9.39,5.75,24.76,3.54c18.94-2.73,22.93-10.22,22.93-10.22s-2.78-29.15-3.07-40.48C136.77,181.85,134.87,151.87,117.25,145.1Z" style="fill:#fff;opacity:0.5"></path></g><path d="M247.28,372.33a7.57,7.57,0,0,0,6.54-.5L365.4,307.41a7.58,7.58,0,0,0,3.69-5.31l12.21-72.84a7.51,7.51,0,0,0-2.14-6.64l-116,66.95a5.63,5.63,0,0,0-2.73,3.93Z" style="fill:#37474f"></path><path d="M245.47,371.39l.77.44a7.66,7.66,0,0,0,1,.5l13.2-78.83a5.63,5.63,0,0,1,2.73-3.93l116-66.95a7.64,7.64,0,0,0-1.55-1.18L261.43,288.52a5.63,5.63,0,0,0-2.73,3.93Z" style="fill:#455a64"></path><path d="M261.56,291.06l-1.8-1a5.6,5.6,0,0,0-1.06,2.43l-13.23,78.94.77.44a7.66,7.66,0,0,0,1,.5l13.2-78.83A5.67,5.67,0,0,1,261.56,291.06Z" style="fill:#263238"></path><path d="M310.12,305.09c.82-4.88,5.86-11.36,11.25-14.47s9.1-1.68,8.28,3.19-5.85,11.36-11.24,14.47S309.3,310,310.12,305.09Z" style="fill:#67C38D"></path></g></g></g><g id="freepik--Lightnings--inject-103"><g id="freepik--Bolts--inject-103"><polygon points="255.96 87.17 269.06 80.79 261.91 74.2 289.02 62.73 277.64 55.57 306.92 41.38 289.28 55.79 302.88 63.25 271.1 75.64 278.53 83.65 255.96 87.17" style="fill:#67C38D"></polygon><polygon points="250.06 70.01 258.72 62.34 254.3 58.79 261.95 50.39 255 47.72 257.86 36.79 252.47 48.5 257.33 50.83 249.09 59.23 254.28 63.25 250.06 70.01" style="fill:#67C38D"></polygon><polygon points="253.83 99.73 269.1 112.61 275.24 104.28 288.73 112.27 294.78 101.91 315.89 108.15 291.65 95.44 284.22 104.91 273.01 98.33 267.93 106.34 253.83 99.73" style="fill:#67C38D"></polygon></g><g id="freepik--bolts--inject-103"><polygon points="129.69 67.99 120.74 61.88 119.11 68.93 101.71 55.62 101.27 65.61 81.31 51.91 97.12 58.01 96.94 46.47 116.66 62.45 119.1 54.7 129.69 67.99" style="fill:#e0e0e0"></polygon><polygon points="130.08 81.18 119.65 78.61 118.41 83.61 107.75 82.15 108.36 88.57 97.52 91.88 110.13 90.04 110.1 85.32 121 87.23 122.34 81.42 130.08 81.18" style="fill:#e0e0e0"></polygon><polygon points="134.57 57.64 133.76 41.52 125.45 42.48 122.74 30.1 113.28 32.24 105.33 16.32 111.18 37.66 120.87 36.83 123.17 47.07 130.7 45.66 134.57 57.64" style="fill:#e0e0e0"></polygon></g></g><g id="freepik--Drink--inject-103"><g id="freepik--Coffee--inject-103"><path id="freepik--Shadow--inject-103" d="M406.5,296.44c8.13-4.25,21.16-4.35,29.09-.23s8,10.91.12,15.16-20.89,4.36-29.09.24S398.36,300.7,406.5,296.44Z" style="fill:#67C38D;opacity:0.2"></path><g id="freepik--coffee--inject-103"><g id="freepik--coffee--inject-103"><path d="M407.69,267.87c7.46-2.85,19.41-3,26.68-.3s7.32,7.15.11,10-19.16,3-26.68.3S400.23,270.71,407.69,267.87Z" style="fill:#67C38D"></path><g style="opacity:0.30000000000000004"><path d="M407.69,267.87c7.46-2.85,19.41-3,26.68-.3s7.32,7.15.11,10-19.16,3-26.68.3S400.23,270.71,407.69,267.87Z"></path></g><path d="M401.62,258.85l38.43-.38-2.41,45.31h0c-.16,1.65-1.68,3.3-4.61,4.59-6.23,2.75-16.55,2.87-23.05.25-3.05-1.22-4.66-2.83-4.87-4.48h0Z" style="fill:#fafafa"></path><path d="M440.05,258.47l-.49,9.2a16.55,16.55,0,0,1-3.19,1.76c-8.27,3.53-22,3.68-30.61.34-.37-.15-.69-.31-1-.46a19.39,19.39,0,0,1-2.43-1.33l-.69-9.13Z" style="fill:#ebebeb"></path><path d="M399.21,260.22l-.08-6.92,4.48-.05a21.24,21.24,0,0,1,2-.93c8.55-3.54,22.26-3.69,30.61-.34a19.65,19.65,0,0,1,1.89.89l4.35-.05.08,6.92h0c0,2.26-2,4.54-6.17,6.3-8.27,3.54-22,3.69-30.61.34C401.4,264.71,399.23,262.47,399.21,260.22Z" style="fill:#67C38D"></path><g style="opacity:0.2"><path d="M399.21,260.22l-.08-6.92,4.48-.05a21.24,21.24,0,0,1,2-.93c8.55-3.54,22.26-3.69,30.61-.34a19.65,19.65,0,0,1,1.89.89l4.35-.05.08,6.92h0c0,2.26-2,4.54-6.17,6.3-8.27,3.54-22,3.69-30.61.34C401.4,264.71,399.23,262.47,399.21,260.22Z"></path></g><path d="M405.51,247c8.56-3.54,22.26-3.69,30.61-.34s8.41,8.93.14,12.46-22,3.68-30.62.34S397,250.53,405.51,247Z" style="fill:#67C38D"></path><path d="M403.09,251.59h0l1.33-5.72,11-.13a45.44,45.44,0,0,1,10.93-.12l10.67-.11,1.46,5.69h0c.71,2.07-.91,4.26-4.9,5.89-6.82,2.8-18.12,2.92-25.24.28C404.12,255.82,402.4,253.67,403.09,251.59Z" style="fill:#67C38D"></path><path d="M403.09,251.59h0l1.33-5.72,11-.13a45.44,45.44,0,0,1,10.93-.12l10.67-.11,1.46,5.69h0c.71,2.07-.91,4.26-4.9,5.89-6.82,2.8-18.12,2.92-25.24.28C404.12,255.82,402.4,253.67,403.09,251.59Z" style="opacity:0.2"></path><path d="M409.15,242.17c6.48-2.44,16.85-2.56,23.17-.26s6.36,6.13.1,8.57-16.65,2.55-23.18.26S402.66,244.6,409.15,242.17Z" style="fill:#67C38D"></path><path d="M406.57,246.49c0,.09.18.39.73.8a10.39,10.39,0,0,0,2.68,1.32,33.82,33.82,0,0,0,10.92,1.53,32.25,32.25,0,0,0,10.71-1.76,9,9,0,0,0,2.56-1.39c.52-.43.67-.75.67-.83s-.58-1.15-3.28-2.13a32.21,32.21,0,0,0-10.74-1.52,33.62,33.62,0,0,0-10.89,1.77C407.24,245.29,406.58,246.28,406.57,246.49Z" style="fill:#67C38D"></path><g style="opacity:0.5"><path d="M406.57,246.49c0,.09.18.39.73.8a10.39,10.39,0,0,0,2.68,1.32,33.82,33.82,0,0,0,10.92,1.53,32.25,32.25,0,0,0,10.71-1.76,9,9,0,0,0,2.56-1.39c.52-.43.67-.75.67-.83s-.58-1.15-3.28-2.13a32.21,32.21,0,0,0-10.74-1.52,33.62,33.62,0,0,0-10.89,1.77C407.24,245.29,406.58,246.28,406.57,246.49Z"></path></g><path d="M407.3,247.29a10.39,10.39,0,0,0,2.68,1.32,33.82,33.82,0,0,0,10.92,1.53,32.25,32.25,0,0,0,10.71-1.76,9,9,0,0,0,2.56-1.39,9.56,9.56,0,0,0-2.59-1.33,32.25,32.25,0,0,0-10.74-1.52A33.62,33.62,0,0,0,410,245.91,10.1,10.1,0,0,0,407.3,247.29Z" style="fill:#67C38D"></path><g style="opacity:0.2"><path d="M407.3,247.29a10.39,10.39,0,0,0,2.68,1.32,33.82,33.82,0,0,0,10.92,1.53,32.25,32.25,0,0,0,10.71-1.76,9,9,0,0,0,2.56-1.39,9.56,9.56,0,0,0-2.59-1.33,32.25,32.25,0,0,0-10.74-1.52A33.62,33.62,0,0,0,410,245.91,10.1,10.1,0,0,0,407.3,247.29Z"></path></g><g style="opacity:0.5"><path d="M413.82,247.36a3.34,3.34,0,0,0-2.58-.46c-.47.27-.08.93.88,1.46a3.21,3.21,0,0,0,2.58.46C415.17,248.54,414.77,247.89,413.82,247.36Z"></path></g><path d="M439,289.13c0,1.71-1.67,3.43-5.07,4.77-6.79,2.67-18.05,2.79-25.13.27-3.54-1.26-5.32-2.94-5.35-4.64l-1.27-16.61c0,1.81,1.91,3.6,5.67,4.94,7.52,2.67,19.47,2.54,26.68-.3,3.61-1.42,5.4-3.25,5.38-5.05Z" style="fill:#67C38D"></path><g style="opacity:0.35000000000000003"><path d="M439,289.13c0,1.71-1.67,3.43-5.07,4.77-6.79,2.67-18.05,2.79-25.13.27-3.54-1.26-5.32-2.94-5.35-4.64l-1.27-16.61c0,1.81,1.91,3.6,5.67,4.94,7.52,2.67,19.47,2.54,26.68-.3,3.61-1.42,5.4-3.25,5.38-5.05Z" style="fill:#fff"></path></g><path d="M427.23,290.25a24.53,24.53,0,0,0,1.46-2.84,8.35,8.35,0,0,1,4.31-3.88.54.54,0,0,1,.68.24c1,1.91.41,4.61-1.52,6.59s-4.58,2.59-6.51,1.71c-.11-.05-.14-.27,0-.32A5.62,5.62,0,0,0,427.23,290.25Z" style="fill:#37474f"></path><path d="M432,283a9.14,9.14,0,0,0-2.72,1.71,8.35,8.35,0,0,0-2,2.74,7.94,7.94,0,0,1-2.45,3.33.53.53,0,0,1-.75-.1c-1.3-1.92-.83-4.89,1.26-7s4.74-2.63,6.68-1.62A.54.54,0,0,1,432,283Z" style="fill:#37474f"></path></g></g></g></g><g id="freepik--Notebook--inject-103"><g id="freepik--notebook--inject-103"><path id="freepik--shadow--inject-103" d="M145.84,345.76,88.57,378.83c-.82.47-.82,1.23,0,1.71l69.86,40.22a3.28,3.28,0,0,0,3,0l57.27-33.07a.9.9,0,0,0,0-1.71L148.8,345.76A3.28,3.28,0,0,0,145.84,345.76Z" style="fill:#67C38D;opacity:0.2"></path><g id="freepik--notebook--inject-103"><path d="M143.33,348.69,94.15,374.58l-1,1.59v1.29a1.85,1.85,0,0,0,1,1.58L159,416.46a3.61,3.61,0,0,0,3.38,0l48.08-27.75v-1.28Z" style="fill:#263238"></path><path d="M160.65,415.6a3.44,3.44,0,0,1-1.69-.42L94.15,377.76a1.85,1.85,0,0,1-1-1.59,1.88,1.88,0,0,1,1-1.59l47-27.14,69.25,40-48.08,27.75A3.44,3.44,0,0,1,160.65,415.6Z" style="fill:#67C38D"></path><path d="M141.16,343.69,94.69,370.52l-.48.67v5h0a.8.8,0,0,0,.48.67l64.81,37.42a2.52,2.52,0,0,0,2.3,0l46.48-26.83v-5Z" style="fill:#ebebeb"></path><path d="M208.29,382.44l-.59.34-7.56,4.36-1.41.82-36.92,21.31a2.54,2.54,0,0,1-2.31,0L94.68,371.85a.7.7,0,0,1,0-1.33l.62-.36,45.86-26.47,66.55,38.41.14.09Z" style="fill:#f0f0f0"></path><path d="M160.65,409.55v5a2.25,2.25,0,0,1-1.15-.28L94.68,376.84a.81.81,0,0,1-.47-.67v-5a.83.83,0,0,0,.47.67l64.82,37.42A2.25,2.25,0,0,0,160.65,409.55Z" style="fill:#e0e0e0"></path><path d="M208.29,381.77l-8.37,4.83-1.31.76-36.8,21.25a2.61,2.61,0,0,1-2.31,0l-58-33.51c-.52-.29-1-.57-1.46-.85a14.18,14.18,0,0,1-4.7-4.09,1.63,1.63,0,0,0-.11-.17,1,1,0,0,1-.14-.35,1,1,0,0,1,.81-1.17,21.11,21.11,0,0,0,4.37-1.82l.06,0L141.16,343Z" style="fill:#fff"></path><path d="M199.62,381.19a.66.66,0,0,0,0,1.25,2.41,2.41,0,0,0,2.16,0c.6-.35.6-.91,0-1.25A2.35,2.35,0,0,0,199.62,381.19Z" style="opacity:0.1"></path><path d="M206.55,377.15a2.84,2.84,0,0,0-2.9.2,9,9,0,0,0-3.65,5.24,2.15,2.15,0,0,0,.8.1,8.11,8.11,0,0,1,3.25-4.65,2.8,2.8,0,0,1,1.32-.4,1.62,1.62,0,0,1,.78.2,3,3,0,0,1,1.09,2.67,4.58,4.58,0,0,1,0,.64l.76.44a8.09,8.09,0,0,0,.08-1.08A3.69,3.69,0,0,0,206.55,377.15Z" style="fill:#263238"></path><path d="M207.89,382c0,.06,0,.13,0,.19l-.14-.09Z" style="fill:#263238"></path><path d="M193.13,377.44a.66.66,0,0,0,0,1.25,2.39,2.39,0,0,0,2.15,0c.6-.35.6-.91,0-1.25A2.33,2.33,0,0,0,193.13,377.44Z" style="opacity:0.1"></path><path d="M200.05,373.4a2.84,2.84,0,0,0-2.9.2,9,9,0,0,0-3.64,5.24,2.07,2.07,0,0,0,.79.1,8.2,8.2,0,0,1,3.25-4.65,2.8,2.8,0,0,1,1.33-.4,1.55,1.55,0,0,1,.77.2,2.94,2.94,0,0,1,1.1,2.67,4.58,4.58,0,0,1,0,.64l.76.44a8.09,8.09,0,0,0,.08-1.08A3.69,3.69,0,0,0,200.05,373.4Z" style="fill:#263238"></path><path d="M186.63,373.69a.66.66,0,0,0,0,1.25,2.41,2.41,0,0,0,2.16,0c.6-.35.6-.91,0-1.25A2.35,2.35,0,0,0,186.63,373.69Z" style="opacity:0.1"></path><path d="M193.56,369.65a2.84,2.84,0,0,0-2.9.2,9,9,0,0,0-3.65,5.24,2.35,2.35,0,0,0,.8.1,8.11,8.11,0,0,1,3.25-4.65,2.66,2.66,0,0,1,1.32-.4,1.51,1.51,0,0,1,.78.2,3,3,0,0,1,1.09,2.67,4.58,4.58,0,0,1,0,.64l.76.44a8.09,8.09,0,0,0,.08-1.08A3.68,3.68,0,0,0,193.56,369.65Z" style="fill:#263238"></path><path d="M180.14,369.94a.66.66,0,0,0,0,1.25,2.39,2.39,0,0,0,2.15,0c.6-.35.6-.91,0-1.25A2.33,2.33,0,0,0,180.14,369.94Z" style="opacity:0.1"></path><path d="M187.06,365.9a2.84,2.84,0,0,0-2.9.2,9,9,0,0,0-3.64,5.24,2.07,2.07,0,0,0,.79.1,8.15,8.15,0,0,1,3.25-4.65,2.8,2.8,0,0,1,1.32-.4,1.56,1.56,0,0,1,.78.2,2.94,2.94,0,0,1,1.1,2.67c0,.21,0,.43,0,.64l.76.44a8,8,0,0,0,.07-1.08A3.69,3.69,0,0,0,187.06,365.9Z" style="fill:#263238"></path><path d="M173.64,366.19a.66.66,0,0,0,0,1.25,2.41,2.41,0,0,0,2.16,0,.66.66,0,0,0,0-1.25A2.35,2.35,0,0,0,173.64,366.19Z" style="opacity:0.1"></path><path d="M180.57,362.15a2.84,2.84,0,0,0-2.9.2,9,9,0,0,0-3.65,5.24,2.12,2.12,0,0,0,.8.1,8.11,8.11,0,0,1,3.25-4.65,2.77,2.77,0,0,1,1.32-.4,1.62,1.62,0,0,1,.78.2,3,3,0,0,1,1.09,2.67,4.58,4.58,0,0,1,0,.64l.76.44a8.09,8.09,0,0,0,.08-1.08A3.68,3.68,0,0,0,180.57,362.15Z" style="fill:#263238"></path><path d="M167.15,362.44c-.6.34-.6.9,0,1.25a2.39,2.39,0,0,0,2.15,0c.6-.35.6-.91,0-1.25A2.33,2.33,0,0,0,167.15,362.44Z" style="opacity:0.1"></path><path d="M174.07,358.4a2.84,2.84,0,0,0-2.9.2,9.09,9.09,0,0,0-3.65,5.24,2.38,2.38,0,0,0,.8.1,8.11,8.11,0,0,1,3.25-4.65,2.69,2.69,0,0,1,1.32-.4,1.59,1.59,0,0,1,.78.2,3,3,0,0,1,1.09,2.67c0,.21,0,.43,0,.64l.75.44a6.71,6.71,0,0,0,.08-1.08A3.68,3.68,0,0,0,174.07,358.4Z" style="fill:#263238"></path><path d="M160.65,358.69a.66.66,0,0,0,0,1.25,2.41,2.41,0,0,0,2.16,0,.66.66,0,0,0,0-1.25A2.35,2.35,0,0,0,160.65,358.69Z" style="opacity:0.1"></path><path d="M167.58,354.65a2.84,2.84,0,0,0-2.9.2,9,9,0,0,0-3.65,5.24,2.32,2.32,0,0,0,.79.1,8.16,8.16,0,0,1,3.26-4.65,2.63,2.63,0,0,1,1.32-.4,1.51,1.51,0,0,1,.78.2,3,3,0,0,1,1.09,2.67,4.58,4.58,0,0,1,0,.64l.76.44a8.09,8.09,0,0,0,.08-1.08A3.7,3.7,0,0,0,167.58,354.65Z" style="fill:#263238"></path><path d="M154.15,354.94a.66.66,0,0,0,0,1.25,2.41,2.41,0,0,0,2.16,0c.6-.35.6-.91,0-1.25A2.35,2.35,0,0,0,154.15,354.94Z" style="opacity:0.1"></path><path d="M161.08,350.9a2.84,2.84,0,0,0-2.9.2,9,9,0,0,0-3.65,5.24,2.38,2.38,0,0,0,.8.1,8.11,8.11,0,0,1,3.25-4.65,2.69,2.69,0,0,1,1.32-.4,1.62,1.62,0,0,1,.78.2,3,3,0,0,1,1.09,2.67,4.58,4.58,0,0,1,0,.64l.76.44a8.09,8.09,0,0,0,.08-1.08A3.68,3.68,0,0,0,161.08,350.9Z" style="fill:#263238"></path><path d="M147.66,351.19a.66.66,0,0,0,0,1.25,2.39,2.39,0,0,0,2.15,0c.6-.35.6-.91,0-1.25A2.33,2.33,0,0,0,147.66,351.19Z" style="opacity:0.1"></path><path d="M154.58,347.14a2.82,2.82,0,0,0-2.89.21,9,9,0,0,0-3.65,5.24,2.29,2.29,0,0,0,.79.1,8.2,8.2,0,0,1,3.25-4.65,2.7,2.7,0,0,1,1.33-.4,1.45,1.45,0,0,1,.77.2,2.94,2.94,0,0,1,1.1,2.67,4.68,4.68,0,0,1,0,.64l.76.43a7.82,7.82,0,0,0,.08-1.07A3.72,3.72,0,0,0,154.58,347.14Z" style="fill:#263238"></path><path d="M141.16,347.44a.66.66,0,0,0,0,1.25,2.41,2.41,0,0,0,2.16,0c.6-.35.6-.91,0-1.25A2.35,2.35,0,0,0,141.16,347.44Z" style="opacity:0.1"></path><path d="M148.09,343.39a2.84,2.84,0,0,0-2.9.21,9,9,0,0,0-3.65,5.24,2.35,2.35,0,0,0,.8.1,8.11,8.11,0,0,1,3.25-4.65,2.71,2.71,0,0,1,1.32-.41,1.52,1.52,0,0,1,.78.21,3,3,0,0,1,1.09,2.67,4.68,4.68,0,0,1,0,.64l.76.43a7.82,7.82,0,0,0,.08-1.07A3.71,3.71,0,0,0,148.09,343.39Z" style="fill:#263238"></path><path d="M154.16,401.92a.73.73,0,0,1-.37-1.37l35.76-20.64a.73.73,0,0,1,.73,1.27l-35.76,20.64A.68.68,0,0,1,154.16,401.92Z" style="fill:#ebebeb"></path><path d="M149.83,399.42a.73.73,0,0,1-.37-1.37l35.76-20.64a.73.73,0,0,1,.73,1.27l-35.76,20.64A.68.68,0,0,1,149.83,399.42Z" style="fill:#ebebeb"></path><path d="M145.49,396.92a.73.73,0,0,1-.63-.37.73.73,0,0,1,.27-1l35.76-20.64a.73.73,0,1,1,.73,1.27l-35.76,20.64A.69.69,0,0,1,145.49,396.92Z" style="fill:#ebebeb"></path><path d="M141.16,394.42a.71.71,0,0,1-.63-.37.73.73,0,0,1,.27-1l35.75-20.64a.73.73,0,0,1,.74,1.27l-35.76,20.64A.69.69,0,0,1,141.16,394.42Z" style="fill:#ebebeb"></path><path d="M136.83,391.92a.71.71,0,0,1-.63-.37.73.73,0,0,1,.27-1l35.75-20.64a.73.73,0,0,1,.74,1.27L137.2,391.82A.71.71,0,0,1,136.83,391.92Z" style="fill:#ebebeb"></path><path d="M132.5,389.42a.71.71,0,0,1-.63-.37.73.73,0,0,1,.27-1l35.75-20.64a.73.73,0,0,1,1,.27.74.74,0,0,1-.26,1l-35.76,20.64A.71.71,0,0,1,132.5,389.42Z" style="fill:#ebebeb"></path><path d="M128.17,386.92a.71.71,0,0,1-.63-.37.74.74,0,0,1,.26-1l35.76-20.64a.73.73,0,1,1,.73,1.26l-35.75,20.65A.82.82,0,0,1,128.17,386.92Z" style="fill:#ebebeb"></path><path d="M123.84,384.42a.71.71,0,0,1-.63-.37.72.72,0,0,1,.26-1l35.76-20.64a.73.73,0,1,1,.74,1.26l-35.76,20.65A.74.74,0,0,1,123.84,384.42Z" style="fill:#ebebeb"></path><path d="M119.51,381.92a.74.74,0,0,1-.37-1.37l35.76-20.64a.72.72,0,0,1,1,.26.73.73,0,0,1-.27,1l-35.75,20.65A.82.82,0,0,1,119.51,381.92Z" style="fill:#ebebeb"></path><path d="M115.18,379.42a.71.71,0,0,1-.63-.37.72.72,0,0,1,.26-1l35.76-20.64a.74.74,0,0,1,1,.26.73.73,0,0,1-.27,1l-35.75,20.65A.74.74,0,0,1,115.18,379.42Z" style="fill:#ebebeb"></path><path d="M110.85,376.92a.74.74,0,0,1-.64-.37.73.73,0,0,1,.27-1l35.76-20.65a.73.73,0,1,1,.73,1.27l-35.76,20.65A.68.68,0,0,1,110.85,376.92Z" style="fill:#ebebeb"></path><path d="M106.52,374.42a.75.75,0,0,1-.64-.37.73.73,0,0,1,.27-1l35.76-20.64a.73.73,0,1,1,.73,1.26l-35.76,20.65A.78.78,0,0,1,106.52,374.42Z" style="fill:#ebebeb"></path><path d="M102.19,371.92a.73.73,0,0,1-.37-1.37l35.76-20.65a.75.75,0,0,1,1,.27.73.73,0,0,1-.27,1l-35.76,20.65A.78.78,0,0,1,102.19,371.92Z" style="fill:#ebebeb"></path><path d="M158.55,404.42a.73.73,0,0,1-.63-.36.73.73,0,0,1,.27-1L196,381.18a.73.73,0,1,1,.73,1.27l-37.82,21.87A.71.71,0,0,1,158.55,404.42Z" style="fill:#67C38D"></path><g style="opacity:0.25"><path d="M177.46,377.24a3.19,3.19,0,0,0-1.46-.94c-.22-.09-.46-.23-.71-.36-.33-.53-.77-1.39-.19-1.5a4.47,4.47,0,0,1,1.39.41c.21.06.16-.24,0-.3-.64-.25-1.86-1-2.12,0a1.67,1.67,0,0,0,.15,1,2.14,2.14,0,0,0-.94-.17c-.3,0-.56,0-.66.38-.06.2,0,.28,0,.43s.24.29.31.31l-.34,0c-.46,0-1.69-.32-2,.24-.12.24.15.56.11.64s-.9.34-1.05.44,0,.28-.06.3a9.22,9.22,0,0,1-1.3,0c-.72.06-2.49-.21-2.26.9,0,.12.12.1.14.29a.8.8,0,0,0,.06.27s-.08,0-.17.15-.31.06-.4.17c-.34.43.18.58-.24.84-.6.38-1.84-.38-2.45,0s.17,1.44-.79,1.46c-.21,0-.08.31.07.33.89.08.8-.09,1-.82.28-1.19,2.05-.37,3-.64a.17.17,0,0,0,.08-.26c-.27-.43,0-.66.43-.84a.17.17,0,0,0,.07-.26c-.1-.19-.48-.78-.25-1.06a5.49,5.49,0,0,1,1.06-.13c.77,0,1.54-.07,2.31,0a.16.16,0,0,0,.15-.22c-.11-.24.89-.4,1.11-.45a.16.16,0,0,0,.1-.21c-.48-1.19,1.28-.75,2-.64a.17.17,0,0,0,.2-.22c-.11-.4-1-.8.05-.95a1.68,1.68,0,0,1,.8.19,5.72,5.72,0,0,0,1.83,1.89C177.29,378.29,178,378.05,177.46,377.24Zm-.33.21c.22.3-.47.06-.55,0a2.52,2.52,0,0,1-.92-1c.21.11.41.22.55.28A2.2,2.2,0,0,1,177.13,377.45Z"></path><path d="M159.57,384.77c-.13-.51-.14-1.08.34-1.14.23,0,.06-.35-.11-.35-.65,0-.85.54-.77,1.22a3.67,3.67,0,0,0-.8-.28c-.42-.08-.69-.09-.83.34-.08.26.12.42.11.65s.31.2-.2.34a3.25,3.25,0,0,1-.59-.07c-.51,0-.56,0-.87.28s.47.39-.46.24a1.84,1.84,0,0,0-.73-.1c-.35.08-.53.18-.47.56,0,.17.39.39.39.5,0,.82-.89.13-1.23,0a.16.16,0,0,0-.21.13c0,.41.27.55-.32.59-.07,0-.48-.22-.61-.23-.38,0-.73.5-1.22.46-.14,0-.18.11-.14.22.13.37.33.59-.41.91,0,0-.88-.1-.86-.1-.22,0-.08.34.08.36.35,0,1.5.51,1.84.05s-.24-.74-.12-1c-.08.14.66-.21.74-.23a2.06,2.06,0,0,1,.58-.16c.1,0,.19.17.3.17s.3.07.43,0,.16-.24.21-.28-.17-.19.09-.28.35.13.53.18.7.3.94,0-.26-.66-.21-.93c.12-.58,1-.14,1.34-.4a.15.15,0,0,0,0-.18c-.23-.81,1.24-.17,1.7-.26a.17.17,0,0,0,.16-.17c0-.07-.19-.5-.19-.51.12-.48.79-.43,1.1-.35.29,1,1.07,2,1.93,1.72a.14.14,0,0,0,.1-.15C161.13,385.9,160.37,385.23,159.57,384.77Zm.31.81a1.69,1.69,0,0,1-.11-.23,2.2,2.2,0,0,1,.6.59C160.53,386.43,160,385.72,159.88,385.58Z"></path><path d="M172.57,390.05a3.17,3.17,0,0,0-1.47-.94c-.21-.09-.45-.22-.7-.35-.33-.53-.77-1.4-.19-1.5.35-.07,1,.29,1.39.4.21.07.16-.24,0-.3-.64-.25-1.86-1-2.12.05a1.63,1.63,0,0,0,.15,1,2.14,2.14,0,0,0-.94-.17c-.3,0-.56,0-.66.39-.06.19,0,.27,0,.42s.24.29.31.31l-.34,0c-.46,0-1.69-.31-2,.25-.12.23.15.55.11.64s-.9.33-1.05.43,0,.28-.06.31-1,0-1.3,0c-.72.05-2.49-.21-2.26.89,0,.12.12.1.14.3a1,1,0,0,0,.06.27s-.08,0-.17.14-.31.06-.4.17c-.34.43.18.58-.24.84-.6.38-1.84-.38-2.45,0s.17,1.44-.79,1.46c-.21,0-.08.32.07.33.89.08.8-.09,1-.82.28-1.18,2-.37,3-.64a.16.16,0,0,0,.07-.26c-.26-.42.05-.65.44-.84a.17.17,0,0,0,.08-.25c-.11-.2-.49-.79-.26-1.07a5.53,5.53,0,0,1,1.06-.12,22.26,22.26,0,0,1,2.31,0,.17.17,0,0,0,.15-.22c-.11-.25.89-.41,1.11-.46a.15.15,0,0,0,.09-.21c-.47-1.19,1.29-.75,2-.63a.17.17,0,0,0,.2-.23c-.11-.4-1-.8,0-.95a1.68,1.68,0,0,1,.8.19,5.63,5.63,0,0,0,1.83,1.89C172.4,391.1,173.1,390.86,172.57,390.05Zm-.33.22c.22.29-.47.05-.55,0a2.52,2.52,0,0,1-.92-1c.21.11.41.22.55.28A2.22,2.22,0,0,1,172.24,390.27Z"></path><path d="M183.56,381c-.13-.52-.15-1.09.33-1.15.23,0,.07-.34-.1-.35-.65,0-.86.54-.77,1.22a4,4,0,0,0-.8-.27c-.42-.08-.7-.1-.83.33-.09.26.12.43.1.66s.32.2-.19.33a4.22,4.22,0,0,1-.59-.06.87.87,0,0,0-.87.27c-.32.27.47.39-.47.24a2.26,2.26,0,0,0-.73-.1c-.34.08-.52.18-.47.56,0,.17.4.4.39.51,0,.82-.89.12-1.22,0a.16.16,0,0,0-.22.13c0,.4.28.55-.32.58-.07,0-.47-.22-.6-.22-.38,0-.73.49-1.23.45-.13,0-.18.11-.14.22.14.37.34.6-.41.92l-.86-.11c-.21,0-.08.35.09.36.34,0,1.49.51,1.84.05s-.25-.73-.12-1c-.09.14.65-.2.74-.23a2.09,2.09,0,0,1,.57-.16c.11,0,.19.17.3.17s.3.07.43,0,.17-.24.22-.28-.17-.19.09-.28.35.13.52.19.7.29.94,0-.26-.66-.2-.92c.12-.59,1-.14,1.33-.4a.16.16,0,0,0,.06-.18c-.24-.81,1.23-.18,1.69-.27.09,0,.17-.07.16-.16s-.18-.51-.18-.51c.11-.49.78-.43,1.09-.35.3,1,1.08,2,1.93,1.71a.16.16,0,0,0,.11-.15C185.11,382.1,184.35,381.42,183.56,381Zm.3.81a1.94,1.94,0,0,1-.11-.24,1.94,1.94,0,0,1,.6.6C184.52,382.63,183.94,381.91,183.86,381.78Z"></path><path d="M151,362.64a3.19,3.19,0,0,0-1.46-.94c-.21-.09-.45-.23-.7-.36-.33-.53-.77-1.39-.19-1.5.34-.06,1,.3,1.39.41.21.06.16-.24,0-.3-.63-.25-1.85-1-2.11,0a1.58,1.58,0,0,0,.14,1,2.14,2.14,0,0,0-.94-.17c-.3,0-.55,0-.66.38s0,.28,0,.43.24.29.3.31l-.34,0c-.45,0-1.68-.32-2,.24-.12.24.15.56.12.64s-.9.34-1,.44,0,.28-.07.3a9.18,9.18,0,0,1-1.3,0c-.71.06-2.49-.2-2.25.9,0,.12.12.1.14.29a1.59,1.59,0,0,0,.05.27s-.07,0-.16.15-.31.06-.4.17c-.34.43.18.58-.25.84-.59.37-1.83-.38-2.44,0s.16,1.44-.79,1.46c-.21,0-.09.31.07.33.89.08.79-.09,1-.82.27-1.19,2.05-.37,3-.64a.17.17,0,0,0,.07-.26c-.26-.42,0-.66.44-.84a.17.17,0,0,0,.07-.26c-.11-.19-.48-.78-.25-1.06a5.48,5.48,0,0,1,1.05-.13c.77,0,1.54-.07,2.32,0a.17.17,0,0,0,.15-.22c-.12-.24.88-.4,1.11-.45a.17.17,0,0,0,.09-.21c-.48-1.19,1.28-.75,2-.64a.17.17,0,0,0,.2-.22c-.12-.4-1-.8.05-.95a1.73,1.73,0,0,1,.8.19,5.63,5.63,0,0,0,1.83,1.89C150.87,363.69,151.58,363.45,151,362.64Zm-.32.21c.22.3-.47.06-.56,0a2.57,2.57,0,0,1-.91-1c.21.11.4.22.54.28A2.17,2.17,0,0,1,150.72,362.85Z"></path><path d="M133.16,370.17c-.13-.51-.15-1.08.33-1.14.23,0,.07-.35-.1-.35-.65,0-.85.54-.77,1.22a4.07,4.07,0,0,0-.8-.28c-.42-.08-.69-.09-.83.34-.09.26.12.42.1.65s.32.2-.19.34a3.15,3.15,0,0,1-.59-.07.9.9,0,0,0-.87.27c-.32.27.47.4-.47.25a1.8,1.8,0,0,0-.73-.1c-.34.08-.52.18-.47.56,0,.17.4.39.4.5,0,.83-.9.13-1.23,0a.16.16,0,0,0-.21.13c0,.41.27.55-.32.59-.08,0-.48-.22-.61-.23-.38,0-.73.5-1.23.46-.13,0-.18.11-.14.22.14.37.34.59-.41.91,0,0-.88-.1-.86-.1-.21,0-.08.34.09.36.34,0,1.5.51,1.84.05s-.25-.74-.12-.95c-.08.14.66-.2.74-.23a2.06,2.06,0,0,1,.58-.16c.1,0,.19.17.3.17s.29.07.43,0,.16-.24.21-.28-.17-.19.09-.28.35.13.52.18.71.3.95,0-.27-.66-.21-.93c.12-.58.95-.14,1.34-.4a.15.15,0,0,0,.05-.18c-.24-.81,1.23-.17,1.7-.26.08,0,.16-.07.15-.17s-.18-.5-.18-.51c.12-.48.78-.43,1.09-.35.3,1,1.08,2,1.93,1.72a.14.14,0,0,0,.11-.15C134.71,371.3,134,370.63,133.16,370.17Zm.31.81-.12-.23a1.93,1.93,0,0,1,.6.59C134.12,371.83,133.55,371.12,133.47,371Z"></path><path d="M146.15,375.45a3.09,3.09,0,0,0-1.46-.93l-.71-.36c-.33-.53-.76-1.39-.18-1.5.34-.07,1,.29,1.39.4.21.07.16-.24,0-.3-.63-.25-1.85-1-2.11.05a1.55,1.55,0,0,0,.14,1,2.14,2.14,0,0,0-.94-.17c-.3,0-.55,0-.66.39-.06.19,0,.27,0,.42s.24.29.3.31l-.34,0c-.45,0-1.68-.31-2,.25-.12.23.15.55.12.64s-.9.33-1.06.43,0,.28-.06.31a11,11,0,0,1-1.3,0c-.71.06-2.49-.21-2.25.89,0,.12.12.1.14.3a2.24,2.24,0,0,0,.05.27s-.07,0-.17.14-.3.06-.39.17c-.34.43.18.58-.25.84-.59.38-1.83-.38-2.44,0s.16,1.44-.79,1.46c-.21,0-.09.32.07.33.89.08.79-.09,1-.82.27-1.18,2-.37,3-.64a.17.17,0,0,0,.07-.26c-.26-.42,0-.65.44-.84a.17.17,0,0,0,.07-.26c-.11-.19-.48-.78-.25-1.06a5.51,5.51,0,0,1,1.05-.12,19.92,19.92,0,0,1,2.32,0,.16.16,0,0,0,.14-.22c-.11-.25.89-.41,1.12-.46a.16.16,0,0,0,.09-.21c-.48-1.19,1.28-.75,2-.63a.18.18,0,0,0,.21-.23c-.12-.4-1-.8,0-.95a1.73,1.73,0,0,1,.8.19,5.54,5.54,0,0,0,1.83,1.89C146,376.5,146.69,376.26,146.15,375.45Zm-.32.22c.22.29-.47.05-.56,0a2.57,2.57,0,0,1-.91-1c.21.11.4.22.54.28A2.25,2.25,0,0,1,145.83,375.67Z"></path><path d="M157.14,366.37c-.13-.52-.14-1.09.34-1.15.23,0,.06-.34-.11-.35-.65,0-.85.54-.76,1.22a3.83,3.83,0,0,0-.81-.27c-.42-.08-.69-.1-.83.33-.08.26.12.43.11.66s.31.2-.2.33a4.37,4.37,0,0,1-.59-.06.89.89,0,0,0-.87.27c-.31.27.47.39-.46.24a2.26,2.26,0,0,0-.73-.1c-.35.08-.53.18-.47.56,0,.17.39.4.39.51,0,.82-.89.12-1.23,0a.15.15,0,0,0-.21.13c0,.4.27.55-.32.58-.07,0-.48-.22-.61-.22-.38,0-.73.49-1.22.45-.14,0-.18.11-.14.22.13.37.33.6-.41.92,0,0-.88-.11-.86-.11-.22,0-.08.35.08.36.35,0,1.5.51,1.84.05s-.24-.73-.12-.95c-.08.14.66-.2.74-.23a2.06,2.06,0,0,1,.58-.16c.1,0,.19.17.3.17s.3.07.43,0,.16-.24.21-.27-.17-.2.09-.28.35.12.53.18.7.29.94,0-.26-.66-.21-.92c.12-.59,1-.14,1.34-.4a.18.18,0,0,0,.06-.18c-.24-.81,1.23-.18,1.69-.27.08,0,.17-.07.16-.16s-.19-.51-.18-.51c.11-.49.78-.43,1.09-.35.29,1,1.08,2,1.93,1.71a.14.14,0,0,0,.1-.15C158.7,367.5,157.94,366.83,157.14,366.37Zm.31.81c0-.05-.07-.14-.11-.23a2.07,2.07,0,0,1,.6.59C158.1,368,157.53,367.31,157.45,367.18Z"></path><path d="M148.87,384.27a3.19,3.19,0,0,0-1.46-.94c-.22-.09-.46-.23-.71-.36-.33-.53-.77-1.39-.19-1.5a4.47,4.47,0,0,1,1.39.41c.21.06.16-.24,0-.3-.64-.25-1.86-1-2.12,0a1.67,1.67,0,0,0,.15,1,2.14,2.14,0,0,0-.94-.17c-.3,0-.56,0-.66.38s0,.28,0,.43.24.29.31.31l-.34,0c-.45,0-1.69-.32-2,.24-.12.24.15.56.11.64s-.9.34-1.05.44,0,.28-.06.3a9.2,9.2,0,0,1-1.3,0c-.72.06-2.49-.2-2.26.9,0,.12.12.1.15.29a.67.67,0,0,0,.05.27s-.08,0-.17.15-.31.06-.4.17c-.34.43.18.58-.24.84-.6.38-1.84-.38-2.44,0s.16,1.44-.8,1.46c-.21,0-.08.31.08.33.89.08.79-.09,1-.82.28-1.19,2.05-.37,3-.64a.17.17,0,0,0,.08-.26c-.26-.42,0-.66.43-.84a.18.18,0,0,0,.08-.26c-.11-.19-.49-.78-.26-1.06a5.59,5.59,0,0,1,1.06-.13,22.26,22.26,0,0,1,2.31,0,.16.16,0,0,0,.15-.22c-.11-.24.89-.4,1.11-.45a.16.16,0,0,0,.1-.21c-.48-1.19,1.28-.75,2-.64a.17.17,0,0,0,.2-.22c-.11-.4-1-.8.05-.95a1.74,1.74,0,0,1,.81.19A5.54,5.54,0,0,0,148,385C148.7,385.32,149.4,385.08,148.87,384.27Zm-.33.21c.22.3-.47.06-.55,0a2.56,2.56,0,0,1-.92-1c.22.12.41.23.55.29A2.2,2.2,0,0,1,148.54,384.48Z"></path><path d="M157.57,376c-.13-.52-.14-1.08.34-1.15.23,0,.06-.34-.11-.34-.65,0-.85.54-.76,1.21a3.83,3.83,0,0,0-.81-.27c-.42-.08-.69-.09-.83.34-.08.25.13.42.11.65s.32.2-.19.33a2.54,2.54,0,0,1-.6-.06.91.91,0,0,0-.87.27c-.31.27.47.4-.46.25a1.82,1.82,0,0,0-.73-.1c-.35.07-.53.17-.47.55,0,.17.39.4.39.51,0,.82-.89.12-1.23,0a.16.16,0,0,0-.21.13c0,.41.27.55-.32.59-.07,0-.48-.23-.61-.23-.38,0-.72.49-1.22.45-.14,0-.18.11-.14.22.13.38.34.6-.41.92,0,0-.88-.11-.88-.11-.2,0-.06.35.11.36.34,0,1.49.52,1.83.05s-.24-.73-.12-.95c-.08.15.66-.2.74-.23a2.15,2.15,0,0,1,.58-.15c.11,0,.19.16.3.16s.3.07.43,0,.16-.24.22-.27-.17-.19.08-.28.35.12.53.18.7.29.94,0-.26-.66-.21-.92c.12-.58,1-.14,1.34-.4a.16.16,0,0,0,.06-.18c-.24-.81,1.23-.18,1.69-.26.08,0,.17-.07.16-.17s-.19-.5-.18-.51c.11-.49.78-.43,1.09-.35.29,1,1.08,2,1.93,1.71a.16.16,0,0,0,.11-.15C159.13,377.12,158.37,376.45,157.57,376Zm.31.81a1.69,1.69,0,0,1-.11-.23,2.06,2.06,0,0,1,.6.59C158.53,377.65,158,376.94,157.88,376.8Z"></path><path d="M167.54,369.28a.34.34,0,0,0,0-.2c-.14-.5-.72-.12-.82.19s.12.42.1.65.32.2-.19.33a2.46,2.46,0,0,1-.59-.06.9.9,0,0,0-.87.27c-.32.27.47.4-.47.25a1.8,1.8,0,0,0-.73-.1c-.34.07-.52.17-.47.55,0,.17.4.4.4.51,0,.82-.9.12-1.23,0a.16.16,0,0,0-.21.13c0,.41.27.55-.32.59-.08,0-.48-.23-.61-.23-.38,0-.73.49-1.23.45-.13,0-.18.11-.14.22.14.38.34.6-.41.92,0,0-.88-.11-.88-.11-.19,0-.06.35.11.36.34,0,1.5.52,1.84.05s-.25-.73-.12-.95c-.08.15.66-.2.74-.23a2.06,2.06,0,0,1,.58-.15c.1,0,.19.16.3.16s.29.07.43,0,.16-.24.21-.27-.17-.19.09-.28.35.12.52.18.71.29,1,0-.27-.66-.21-.92c.12-.58.95-.14,1.34-.4a.16.16,0,0,0,0-.18c-.23-.81,1.23-.18,1.7-.26.08,0,.17-.07.15-.17a2.43,2.43,0,0,1-.06-1A2,2,0,0,0,167.54,369.28Z"></path></g></g></g></g><g id="freepik--Pencil--inject-103"><g id="freepik--pencil--inject-103"><path id="freepik--shadow--inject-103" d="M186.58,434.86c.78,2.11,3,3.43,6.8,3.92L247,407.38l7-7.07a.54.54,0,0,0-.56-.89l-12.83,4.25Z" style="fill:#67C38D;opacity:0.2"></path><path d="M241.09,398.89l11.42-2.23a.35.35,0,0,1,.34.58L245.1,406Z" style="fill:#ffa8a7"></path><path d="M252.85,397.24a.35.35,0,0,0-.34-.58l-2.23.43h0a2,2,0,0,1,.93,1.83l0,.2Z" style="fill:#263238"></path><path d="M202.49,430.45l.94-.54,1.13-.64L245.1,406a5.25,5.25,0,0,0-.32-3.79c-.81-1.82-2.39-3.25-3.69-3.33l-40.51,23.24-2.16,1.24C199.86,422.65,203.93,429.7,202.49,430.45Z" style="fill:#67C38D"></path><path d="M206.06,428.42l2.08-1.2c.62-.33.27-1.84-.46-3.41-1-2.08-2.82-4.09-3.64-3.66l-1.54.89-.54.32c.81-.43,2.69,1.58,3.64,3.66.69,1.5,1,3,.52,3.36h0A.1.1,0,0,1,206.06,428.42Z" style="fill:#ebebeb"></path><path d="M206.57,428.12c1.44-.76-2.66-7.82-4.1-7.07l-2.09,1.2c1.43-.76,5.53,6.3,4.1,7.06Z" style="fill:#67C38D"></path><path d="M202.49,430.45l2.07-1.18c1.41-.73-2.49-7.58-4-7.13l-.09,0-2.07,1.21C199.86,422.65,203.93,429.7,202.49,430.45Z" style="fill:#ebebeb"></path><path d="M252.9,396.85l-.39-.19-8.29,4.53-42.87,24.6c-.08-.13-.14-.14-.2-.05,1.22,1.9,2.14,4.29,1.34,4.71l.94-.54,1.13-.64L245.1,406h0l7.75-8.78A.35.35,0,0,0,252.9,396.85Z" style="opacity:0.15"></path><path d="M193.73,435.46l8.76-5c.61-.32.27-1.82-.43-3.37-.95-2.09-2.82-4.12-3.64-3.7h0l-8.79,5c-1.74,1-.14,4.8,1.81,6.49A2.08,2.08,0,0,0,193.73,435.46Z" style="fill:#f28f8f"></path><path d="M194.26,432.74c-.51-2-2.11-3.9-3.58-4.32a1.41,1.41,0,0,0-1.31.18c-1.32,1.22.22,4.7,2.06,6.3a2.1,2.1,0,0,0,2.26.58C194.34,435.09,194.6,434.08,194.26,432.74Z" style="opacity:0.1"></path></g></g></svg>