<svg xmlns="http://www.w3.org/2000/svg" viewBox="0 0 500 500"><g id="freepik--background-complete--inject-17"><path d="M233.71,168.43a10.27,10.27,0,0,1-1.91-.55,11,11,0,0,1,2-.13c1.08,0,1.95.22,1.91.54S234.76,168.67,233.71,168.43Z" style="fill:#f5f5f5"></path><path d="M230.86,171a10.83,10.83,0,0,1-.07-2,10.7,10.7,0,0,1,.74,1.85c.35,1,.39,1.91.07,2S231,172.07,230.86,171Z" style="fill:#f5f5f5"></path><path d="M227.54,169.07a10,10,0,0,1,1.87-.68,10.37,10.37,0,0,1-1.53,1.27c-.86.66-1.7,1-1.86.69S226.55,169.5,227.54,169.07Z" style="fill:#f5f5f5"></path><path d="M228.34,165.33a10.6,10.6,0,0,1,1.23,1.56,10.37,10.37,0,0,1-1.69-1.06c-.88-.62-1.44-1.32-1.22-1.56S227.63,164.51,228.34,165.33Z" style="fill:#f5f5f5"></path><path d="M232.15,164.92a10.32,10.32,0,0,1-1.11,1.65,11.3,11.3,0,0,1,.49-1.93c.31-1,.81-1.78,1.1-1.65S232.71,164,232.15,164.92Z" style="fill:#f5f5f5"></path><path d="M62.16,240.44c-1.71-.21-3.09-.55-3.08-.74s1.42-.37,3.14-.39,3.11.31,3.08.75S63.87,240.66,62.16,240.44Z" style="fill:#e0e0e0"></path><path d="M59.16,246.41c-1.17-1.26-2-2.4-1.88-2.55s1.33.64,2.66,1.73,2.17,2.23,1.88,2.55S60.33,247.68,59.16,246.41Z" style="fill:#e0e0e0"></path><path d="M53,249.07c-.08-1.72,0-3.14.21-3.16s.61,1.33.92,3,.23,3.1-.2,3.16S53.1,250.79,53,249.07Z" style="fill:#e0e0e0"></path><path d="M46.62,247.15c1-1.37,2-2.39,2.18-2.29s-.39,1.42-1.23,2.92-1.83,2.53-2.19,2.29S45.58,248.52,46.62,247.15Z" style="fill:#e0e0e0"></path><path d="M42.94,241.58c1.68-.38,3.09-.54,3.15-.36s-1.21.84-2.82,1.45-3,.76-3.15.35S41.26,242,42.94,241.58Z" style="fill:#e0e0e0"></path><path d="M43.71,234.93c1.53.79,2.71,1.58,2.63,1.76s-1.46-.14-3.08-.71-2.81-1.36-2.64-1.76S42.18,234.15,43.71,234.93Z" style="fill:#e0e0e0"></path><path d="M48.56,230.34c.67,1.58,1.07,2.95.9,3s-1-1-1.91-2.52-1.29-2.84-.9-3S47.89,228.75,48.56,230.34Z" style="fill:#e0e0e0"></path><path d="M55.24,229.94c-.51,1.64-1.08,2.94-1.27,2.9s-.12-1.46.16-3.16.84-3,1.26-2.91S55.74,228.29,55.24,229.94Z" style="fill:#e0e0e0"></path><path d="M60.61,233.92c-1.45.93-2.72,1.57-2.84,1.41s.85-1.2,2.15-2.32,2.58-1.76,2.84-1.41S62.05,233,60.61,233.92Z" style="fill:#e0e0e0"></path><path d="M259.56,58.19c-2.23-.28-4-.72-4-1s1.86-.48,4.11-.5,4.06.41,4,1S261.79,58.47,259.56,58.19Z" style="fill:#e0e0e0"></path><path d="M255.64,66c-1.53-1.66-2.63-3.15-2.46-3.34s1.74.82,3.48,2.25,2.84,2.93,2.46,3.34S257.17,67.66,255.64,66Z" style="fill:#e0e0e0"></path><path d="M247.61,69.48c-.11-2.25,0-4.11.27-4.14s.79,1.75,1.21,4,.29,4.07-.27,4.14S247.71,71.72,247.61,69.48Z" style="fill:#e0e0e0"></path><path d="M239.22,67c1.37-1.79,2.65-3.13,2.87-3s-.52,1.85-1.62,3.81-2.39,3.31-2.86,3S237.86,68.76,239.22,67Z" style="fill:#e0e0e0"></path><path d="M234.41,59.68c2.2-.5,4.05-.71,4.12-.47S237,60.3,234.84,61.1s-4,1-4.12.46S232.22,60.17,234.41,59.68Z" style="fill:#e0e0e0"></path><path d="M235.41,51c2,1,3.56,2.06,3.46,2.29s-1.92-.18-4-.92-3.67-1.78-3.45-2.3S233.41,50,235.41,51Z" style="fill:#e0e0e0"></path><path d="M241.77,45c.87,2.07,1.4,3.86,1.17,4s-1.35-1.37-2.5-3.3-1.68-3.72-1.17-4S240.89,42.89,241.77,45Z" style="fill:#e0e0e0"></path><path d="M250.5,44.44c-.66,2.15-1.4,3.86-1.65,3.8s-.16-1.91.2-4.14,1.1-3.92,1.66-3.8S251.16,42.29,250.5,44.44Z" style="fill:#e0e0e0"></path><path d="M257.53,49.65c-1.89,1.23-3.56,2.06-3.71,1.85s1.11-1.57,2.82-3,3.37-2.3,3.7-1.85S259.42,48.43,257.53,49.65Z" style="fill:#e0e0e0"></path><path d="M61.43,95.39c-1.71-.21-3.09-.55-3.08-.74s1.42-.38,3.14-.39,3.1.31,3.08.74S63.13,95.61,61.43,95.39Z" style="fill:#e0e0e0"></path><path d="M58.43,101.36c-1.17-1.26-2-2.4-1.88-2.55s1.33.63,2.66,1.73,2.17,2.23,1.88,2.55S59.6,102.62,58.43,101.36Z" style="fill:#e0e0e0"></path><path d="M52.29,104c-.08-1.72,0-3.14.21-3.16s.61,1.33.92,3,.23,3.11-.2,3.16S52.37,105.73,52.29,104Z" style="fill:#e0e0e0"></path><path d="M45.88,102.1c1-1.37,2-2.4,2.19-2.29s-.39,1.42-1.24,2.92S45,105.25,44.65,105,44.84,103.47,45.88,102.1Z" style="fill:#e0e0e0"></path><path d="M42.21,96.53c1.67-.38,3.09-.54,3.14-.36s-1.21.84-2.82,1.44-3,.77-3.14.36S40.53,96.91,42.21,96.53Z" style="fill:#e0e0e0"></path><path d="M43,89.88c1.53.79,2.72,1.58,2.64,1.75s-1.46-.14-3.09-.71-2.8-1.35-2.63-1.75S41.44,89.1,43,89.88Z" style="fill:#e0e0e0"></path><path d="M47.83,85.29c.67,1.58,1.07,2.94.9,3s-1-1-1.92-2.52-1.28-2.84-.89-3S47.16,83.7,47.83,85.29Z" style="fill:#e0e0e0"></path><path d="M54.5,84.88c-.5,1.65-1.07,3-1.26,2.91s-.12-1.47.16-3.16.84-3,1.26-2.91S55,83.24,54.5,84.88Z" style="fill:#e0e0e0"></path><path d="M59.87,88.87c-1.44.93-2.71,1.57-2.83,1.41s.85-1.2,2.15-2.32S61.77,86.2,62,86.54,61.32,87.93,59.87,88.87Z" style="fill:#e0e0e0"></path><path d="M282.59,197.73c-1.71-.21-3.09-.55-3.08-.75s1.42-.37,3.14-.38,3.11.31,3.08.74S284.29,198,282.59,197.73Z" style="fill:#e0e0e0"></path><path d="M279.59,203.7c-1.17-1.26-2-2.4-1.88-2.55s1.33.63,2.66,1.73,2.17,2.23,1.88,2.55S280.76,205,279.59,203.7Z" style="fill:#e0e0e0"></path><path d="M273.45,206.36c-.08-1.72,0-3.14.21-3.17s.61,1.34.92,3,.23,3.11-.2,3.16S273.53,208.07,273.45,206.36Z" style="fill:#e0e0e0"></path><path d="M267.05,204.44c1-1.37,2-2.4,2.18-2.29s-.39,1.42-1.23,2.92-1.83,2.52-2.19,2.29S266,205.81,267.05,204.44Z" style="fill:#e0e0e0"></path><path d="M263.37,198.86c1.68-.38,3.09-.53,3.15-.35s-1.22.84-2.83,1.44-3,.77-3.14.36S261.69,199.24,263.37,198.86Z" style="fill:#e0e0e0"></path><path d="M264.13,192.22c1.53.79,2.72,1.58,2.64,1.75s-1.46-.14-3.08-.71-2.81-1.35-2.64-1.75S262.61,191.43,264.13,192.22Z" style="fill:#e0e0e0"></path><path d="M269,187.63c.67,1.58,1.07,2.94.9,3s-1-1-1.91-2.52-1.29-2.84-.9-3S268.32,186,269,187.63Z" style="fill:#e0e0e0"></path><path d="M275.66,187.22c-.5,1.65-1.07,2.95-1.26,2.91s-.12-1.47.16-3.17.84-3,1.26-2.9S276.17,185.58,275.66,187.22Z" style="fill:#e0e0e0"></path><path d="M281,191.21c-1.44.93-2.71,1.57-2.83,1.41s.85-1.2,2.15-2.32,2.58-1.76,2.84-1.42S282.48,190.27,281,191.21Z" style="fill:#e0e0e0"></path><path d="M255,270.71a4.84,4.84,0,0,1-1.69-.44,4.79,4.79,0,0,1,1.74-.19c.94,0,1.7.18,1.68.44S255.91,270.86,255,270.71Z" style="fill:#e0e0e0"></path><path d="M252.91,273.75a4.8,4.8,0,0,1-.71-1.59c.08-.05.63.5,1.23,1.24s.92,1.44.7,1.59S253.37,274.58,252.91,273.75Z" style="fill:#e0e0e0"></path><path d="M249.24,274a4.64,4.64,0,0,1,.8-1.54,4.66,4.66,0,0,1-.2,1.73c-.19.92-.56,1.62-.8,1.54S248.88,274.91,249.24,274Z" style="fill:#e0e0e0"></path><path d="M246.73,271.34a5,5,0,0,1,1.71-.34,4.8,4.8,0,0,1-1.48.93c-.85.42-1.61.57-1.71.33S245.82,271.61,246.73,271.34Z" style="fill:#e0e0e0"></path><path d="M247.27,267.7a5,5,0,0,1,1.33,1.13,5.26,5.26,0,0,1-1.65-.58c-.86-.4-1.45-.91-1.32-1.13S246.49,267.15,247.27,267.7Z" style="fill:#e0e0e0"></path><path d="M250.45,265.85a4.85,4.85,0,0,1,0,1.74,4.92,4.92,0,0,1-.58-1.65c-.22-.92-.2-1.7.06-1.74S250.39,264.9,250.45,265.85Z" style="fill:#e0e0e0"></path><path d="M253.88,267.18a4.81,4.81,0,0,1-1.39,1.05,4.6,4.6,0,0,1,.93-1.48c.57-.75,1.2-1.22,1.39-1.05S254.58,266.54,253.88,267.18Z" style="fill:#e0e0e0"></path><path d="M174.54,52.87a4.74,4.74,0,0,1-1.68-.44,5,5,0,0,1,1.73-.19c.95,0,1.71.19,1.69.45S175.48,53,174.54,52.87Z" style="fill:#e0e0e0"></path><path d="M172.47,55.92a4.65,4.65,0,0,1-.7-1.6A5.05,5.05,0,0,1,173,55.56c.6.73.92,1.45.71,1.59S172.93,56.74,172.47,55.92Z" style="fill:#e0e0e0"></path><path d="M168.8,56.2a4.75,4.75,0,0,1,.81-1.55,5.19,5.19,0,0,1-.2,1.73c-.2.93-.56,1.62-.81,1.55S168.44,57.07,168.8,56.2Z" style="fill:#e0e0e0"></path><path d="M166.29,53.5a4.59,4.59,0,0,1,1.71-.33,4.76,4.76,0,0,1-1.47.92c-.85.42-1.62.58-1.71.34S165.39,53.77,166.29,53.5Z" style="fill:#e0e0e0"></path><path d="M166.83,49.86c.78.54,1.38,1,1.33,1.13a4.77,4.77,0,0,1-1.64-.58c-.86-.4-1.46-.9-1.33-1.13S166.06,49.32,166.83,49.86Z" style="fill:#e0e0e0"></path><path d="M170,48a4.69,4.69,0,0,1-.06,1.74,4.58,4.58,0,0,1-.57-1.64c-.23-.92-.2-1.7.05-1.74S170,47.07,170,48Z" style="fill:#e0e0e0"></path><path d="M173.45,49.34a4.78,4.78,0,0,1-1.4,1,5,5,0,0,1,.93-1.48c.58-.75,1.2-1.22,1.39-1S174.15,48.71,173.45,49.34Z" style="fill:#e0e0e0"></path><path d="M460.35,134a8.24,8.24,0,0,1-2.85-.75,7.94,7.94,0,0,1,2.93-.32c1.6,0,2.88.31,2.85.75S461.93,134.24,460.35,134Z" style="fill:#e0e0e0"></path><path d="M456.85,139.12a8,8,0,0,1-1.19-2.69c.13-.08,1.06.86,2.07,2.09s1.55,2.44,1.19,2.69S457.63,140.52,456.85,139.12Z" style="fill:#e0e0e0"></path><path d="M450.65,139.59A8.29,8.29,0,0,1,452,137a8,8,0,0,1-.33,2.92c-.33,1.56-.94,2.73-1.36,2.61S450.05,141.07,450.65,139.59Z" style="fill:#e0e0e0"></path><path d="M446.42,135a8.2,8.2,0,0,1,2.89-.56,8.44,8.44,0,0,1-2.5,1.56c-1.43.72-2.72,1-2.89.56S444.89,135.5,446.42,135Z" style="fill:#e0e0e0"></path><path d="M447.33,128.9a8,8,0,0,1,2.24,1.9,7.8,7.8,0,0,1-2.77-1c-1.45-.67-2.46-1.52-2.24-1.9S446,128,447.33,128.9Z" style="fill:#e0e0e0"></path><path d="M452.7,125.78a8.25,8.25,0,0,1-.09,2.94,8.3,8.3,0,0,1-1-2.78c-.38-1.55-.35-2.88.09-2.94S452.6,124.18,452.7,125.78Z" style="fill:#e0e0e0"></path><path d="M458.5,128a8,8,0,0,1-2.36,1.77,8.09,8.09,0,0,1,1.57-2.49c1-1.27,2-2.06,2.35-1.77S459.68,127,458.5,128Z" style="fill:#e0e0e0"></path><path d="M355,37.3a8,8,0,0,1-2.85-.75,8.15,8.15,0,0,1,2.93-.32c1.59,0,2.87.32,2.84.75S356.57,37.56,355,37.3Z" style="fill:#e0e0e0"></path><path d="M351.5,42.44a7.86,7.86,0,0,1-1.19-2.69c.12-.09,1.06.85,2.07,2.08s1.55,2.45,1.19,2.69S352.28,43.83,351.5,42.44Z" style="fill:#e0e0e0"></path><path d="M345.3,42.91a8.1,8.1,0,0,1,1.36-2.61,8.12,8.12,0,0,1-.34,2.92c-.33,1.56-.94,2.74-1.36,2.61S344.7,44.39,345.3,42.91Z" style="fill:#e0e0e0"></path><path d="M341.07,38.36a8.36,8.36,0,0,1,2.88-.57,7.73,7.73,0,0,1-2.49,1.56c-1.43.72-2.73,1-2.89.57S339.53,38.81,341.07,38.36Z" style="fill:#e0e0e0"></path><path d="M342,32.21c1.31.92,2.32,1.77,2.24,1.91a8.23,8.23,0,0,1-2.77-1c-1.45-.67-2.46-1.53-2.25-1.91S340.67,31.3,342,32.21Z" style="fill:#e0e0e0"></path><path d="M347.35,29.09a8.22,8.22,0,0,1-.09,2.94,8.19,8.19,0,0,1-1-2.78c-.38-1.55-.34-2.87.09-2.94S347.25,27.5,347.35,29.09Z" style="fill:#e0e0e0"></path><path d="M353.14,31.34a8,8,0,0,1-2.35,1.76,8.22,8.22,0,0,1,1.57-2.49c1-1.26,2-2.06,2.35-1.76S354.32,30.26,353.14,31.34Z" style="fill:#e0e0e0"></path></g><g id="freepik--Table--inject-17"><path d="M475.49,476.18c0,.15-101,.26-225.48.26s-225.5-.11-225.5-.26,100.94-.26,225.5-.26S475.49,476,475.49,476.18Z" style="fill:#263238"></path></g><g id="freepik--Particles--inject-17"><path d="M310.3,181.5a9.84,9.84,0,0,1-1.91-.54,11.08,11.08,0,0,1,2-.13c1.08,0,1.94.22,1.91.54S311.36,181.75,310.3,181.5Z" style="fill:#67C38D"></path><path d="M307.46,184.07a11.43,11.43,0,0,1-.08-2,9.84,9.84,0,0,1,.74,1.85c.36,1,.39,1.91.08,2S307.55,185.14,307.46,184.07Z" style="fill:#67C38D"></path><path d="M304.14,182.15a9.83,9.83,0,0,1,1.86-.68,10.67,10.67,0,0,1-1.52,1.27c-.86.66-1.7,1-1.87.69S303.14,182.57,304.14,182.15Z" style="fill:#67C38D"></path><path d="M304.93,178.4a11,11,0,0,1,1.23,1.57,10.07,10.07,0,0,1-1.68-1.06c-.89-.62-1.44-1.32-1.23-1.56S304.22,177.59,304.93,178.4Z" style="fill:#67C38D"></path><path d="M308.74,178a10.7,10.7,0,0,1-1.1,1.65,10.7,10.7,0,0,1,.48-1.93c.31-1,.81-1.78,1.11-1.65S309.3,177.07,308.74,178Z" style="fill:#67C38D"></path><path d="M412.52,80.14c-1.7-.21-3.08-.55-3.07-.75s1.42-.37,3.14-.38,3.1.31,3.08.74S414.23,80.36,412.52,80.14Z" style="fill:#67C38D"></path><path d="M409.53,86.11c-1.17-1.26-2-2.41-1.88-2.55s1.33.63,2.66,1.73,2.17,2.23,1.87,2.54S410.7,87.37,409.53,86.11Z" style="fill:#67C38D"></path><path d="M403.39,88.76c-.08-1.71,0-3.13.2-3.16s.61,1.34.93,3,.22,3.11-.21,3.16S403.47,90.48,403.39,88.76Z" style="fill:#67C38D"></path><path d="M397,86.85c1-1.37,2-2.4,2.19-2.29s-.39,1.42-1.24,2.92-1.82,2.52-2.19,2.29S395.94,88.22,397,86.85Z" style="fill:#67C38D"></path><path d="M393.3,81.27c1.68-.38,3.09-.53,3.15-.35s-1.21.83-2.82,1.44-3,.77-3.15.35S391.63,81.65,393.3,81.27Z" style="fill:#67C38D"></path><path d="M394.07,74.63c1.53.79,2.71,1.57,2.64,1.75s-1.46-.14-3.09-.71-2.8-1.35-2.63-1.75S392.54,73.84,394.07,74.63Z" style="fill:#67C38D"></path><path d="M398.93,70c.66,1.59,1.07,3,.89,3s-1-1-1.91-2.52-1.28-2.84-.9-3S398.26,68.45,398.93,70Z" style="fill:#67C38D"></path><path d="M405.6,69.63c-.51,1.65-1.07,3-1.26,2.91s-.12-1.47.15-3.17.85-3,1.27-2.9S406.11,68,405.6,69.63Z" style="fill:#67C38D"></path><path d="M411,73.61c-1.44.94-2.72,1.57-2.83,1.42s.85-1.2,2.15-2.32,2.57-1.76,2.83-1.42S412.41,72.68,411,73.61Z" style="fill:#67C38D"></path><path d="M441.16,179a4.75,4.75,0,0,1-1.93-.47,4.44,4.44,0,0,1,2-.25c1.08,0,1.95.2,1.94.47S442.23,179.17,441.16,179Z" style="fill:#67C38D"></path><path d="M439.28,182.79c-.73-.8-1.26-1.52-1.18-1.61s.83.4,1.67,1.09,1.36,1.4,1.18,1.6S440,183.58,439.28,182.79Z" style="fill:#67C38D"></path><path d="M435.42,184.45a4.66,4.66,0,0,1,.13-2,4.52,4.52,0,0,1,.58,1.9c.2,1.06.14,1.95-.12,2S435.47,185.53,435.42,184.45Z" style="fill:#67C38D"></path><path d="M431.4,183.25c.65-.86,1.27-1.51,1.37-1.44a4.45,4.45,0,0,1-.77,1.83c-.54.94-1.15,1.59-1.38,1.44S430.74,184.11,431.4,183.25Z" style="fill:#67C38D"></path><path d="M429.09,179.75a4.61,4.61,0,0,1,2-.22,4.85,4.85,0,0,1-1.78.9c-1,.38-1.89.48-2,.22S428,180,429.09,179.75Z" style="fill:#67C38D"></path><path d="M429.57,175.57c1,.5,1.71,1,1.66,1.1a4.45,4.45,0,0,1-1.94-.44c-1-.36-1.76-.85-1.66-1.1S428.61,175.08,429.57,175.57Z" style="fill:#67C38D"></path><path d="M432.62,172.69a4.6,4.6,0,0,1,.56,1.9c-.11.06-.64-.65-1.2-1.58s-.8-1.79-.56-1.91S432.2,171.69,432.62,172.69Z" style="fill:#67C38D"></path><path d="M436.81,172.43a4.69,4.69,0,0,1-.79,1.83,4.57,4.57,0,0,1,.1-2c.17-1.06.53-1.88.79-1.82S437.13,171.4,436.81,172.43Z" style="fill:#67C38D"></path><path d="M440.19,174.94a4.72,4.72,0,0,1-1.78.88c-.08-.1.53-.75,1.35-1.46s1.62-1.1,1.78-.88S441.09,174.35,440.19,174.94Z" style="fill:#67C38D"></path><path d="M58.64,146.42a6.78,6.78,0,0,1-2.36-.62,6.64,6.64,0,0,1,2.43-.27c1.32,0,2.39.26,2.36.62S60,146.63,58.64,146.42Z" style="fill:#67C38D"></path><path d="M55.74,150.68a6.58,6.58,0,0,1-1-2.23c.1-.07.88.71,1.72,1.73s1.29,2,1,2.23S56.39,151.84,55.74,150.68Z" style="fill:#67C38D"></path><path d="M50.59,151.07a6.67,6.67,0,0,1,1.13-2.16,6.66,6.66,0,0,1-.28,2.42c-.27,1.3-.78,2.27-1.13,2.17S50.09,152.3,50.59,151.07Z" style="fill:#67C38D"></path><path d="M47.08,147.3a6.62,6.62,0,0,1,2.4-.47,6.83,6.83,0,0,1-2.08,1.29c-1.18.6-2.26.81-2.39.47S45.81,147.67,47.08,147.3Z" style="fill:#67C38D"></path><path d="M47.84,142.19a6.7,6.7,0,0,1,1.86,1.59,6.81,6.81,0,0,1-2.31-.82c-1.2-.55-2-1.26-1.86-1.58S46.75,141.43,47.84,142.19Z" style="fill:#67C38D"></path><path d="M52.29,139.6a6.54,6.54,0,0,1-.07,2.44,6.55,6.55,0,0,1-.8-2.3c-.32-1.29-.29-2.39.07-2.45S52.21,138.28,52.29,139.6Z" style="fill:#67C38D"></path><path d="M57.1,141.47a6.54,6.54,0,0,1-2,1.46,6.88,6.88,0,0,1,1.3-2.06c.81-1.05,1.69-1.71,1.95-1.47S58.08,140.58,57.1,141.47Z" style="fill:#67C38D"></path><path d="M234,126.53c-1.8-.3-3.26-.68-3.25-.86s1.52-.34,3.34-.37,3.29.36,3.26.86S235.83,126.82,234,126.53Z" style="fill:#67C38D"></path><path d="M230,132.4c-.89-1.59-1.51-3-1.36-3.08s1.21,1,2.37,2.39,1.77,2.79,1.36,3.07S230.92,134,230,132.4Z" style="fill:#67C38D"></path><path d="M222.94,132.94a9.24,9.24,0,0,1,1.56-3c.17.05,0,1.56-.39,3.35s-1.07,3.12-1.55,3S222.25,134.63,222.94,132.94Z" style="fill:#67C38D"></path><path d="M218.1,127.73a9.55,9.55,0,0,1,3.3-.64c.07.16-1.21,1-2.85,1.78s-3.12,1.11-3.3.65S216.35,128.25,218.1,127.73Z" style="fill:#67C38D"></path><path d="M219.15,120.7c1.49,1,2.65,2,2.56,2.19a9.55,9.55,0,0,1-3.17-1.12c-1.66-.77-2.81-1.75-2.57-2.18S217.65,119.66,219.15,120.7Z" style="fill:#67C38D"></path><path d="M225.29,117.14c.11,1.82.07,3.33-.11,3.36a9.36,9.36,0,0,1-1.1-3.18c-.44-1.77-.39-3.29.1-3.36S225.17,115.31,225.29,117.14Z" style="fill:#67C38D"></path><path d="M231.91,119.71c-1.35,1.23-2.56,2.14-2.69,2a9.36,9.36,0,0,1,1.79-2.85c1.12-1.45,2.33-2.36,2.69-2S233.26,118.48,231.91,119.71Z" style="fill:#67C38D"></path><path d="M114,56.37a10,10,0,0,1-1.91-.55,11,11,0,0,1,2-.13c1.08,0,1.94.22,1.91.54S115.05,56.61,114,56.37Z" style="fill:#67C38D"></path><path d="M111.15,58.93a10.83,10.83,0,0,1-.07-2,10.7,10.7,0,0,1,.74,1.85c.35,1,.39,1.91.07,2S111.24,60,111.15,58.93Z" style="fill:#67C38D"></path><path d="M107.83,57a10,10,0,0,1,1.87-.68,11.06,11.06,0,0,1-1.53,1.27c-.86.66-1.7,1-1.86.69S106.84,57.44,107.83,57Z" style="fill:#67C38D"></path><path d="M108.63,53.26a9.72,9.72,0,0,1,1.22,1.57,11.07,11.07,0,0,1-1.68-1.06c-.88-.62-1.44-1.32-1.23-1.56S107.92,52.45,108.63,53.26Z" style="fill:#67C38D"></path><path d="M112.44,52.86a10.32,10.32,0,0,1-1.11,1.65,10.28,10.28,0,0,1,.49-1.93c.31-1,.81-1.78,1.1-1.65S113,51.93,112.44,52.86Z" style="fill:#67C38D"></path><path d="M74,229.77a9.32,9.32,0,0,1-1.91-.54,10.91,10.91,0,0,1,2-.13c1.08,0,1.94.22,1.91.54S75,230,74,229.77Z" style="fill:#67C38D"></path><path d="M71.1,232.34a10.83,10.83,0,0,1-.07-2,11.73,11.73,0,0,1,.74,1.85c.35,1,.39,1.91.07,2S71.19,233.41,71.1,232.34Z" style="fill:#67C38D"></path><path d="M67.78,230.42a10.1,10.1,0,0,1,1.86-.68A10.67,10.67,0,0,1,68.12,231c-.86.66-1.7,1-1.86.69S66.79,230.84,67.78,230.42Z" style="fill:#67C38D"></path><path d="M68.58,226.67a10.46,10.46,0,0,1,1.22,1.57,10.54,10.54,0,0,1-1.68-1.06c-.89-.62-1.44-1.32-1.23-1.56S67.87,225.86,68.58,226.67Z" style="fill:#67C38D"></path><path d="M72.38,226.27a9.92,9.92,0,0,1-1.1,1.65,10.7,10.7,0,0,1,.48-1.93c.32-1,.81-1.78,1.11-1.65S72.94,225.34,72.38,226.27Z" style="fill:#67C38D"></path></g><g id="freepik--character-2--inject-17"><path d="M356,78.25a10.92,10.92,0,0,0-8.55-4.64c-1.37,0-2.9.14-3.95-.74a8.68,8.68,0,0,1-1.55-2.47A5.55,5.55,0,0,0,334.07,69a6.57,6.57,0,0,1-1.79,1.29c-2.83,1-4.95-4.39-7.78-3.4a6.26,6.26,0,0,1,2.56,2.74,2.85,2.85,0,0,1-.85,3.41c-2.78,1.77-6.06-3.66-9.06-2.3-1.62.74-2.21,3.2-4,3.35a5.93,5.93,0,0,1-2-.46,4.56,4.56,0,0,0-5.38,3.13c-.5,1.91.11,4.44-1.55,5.51-1,.66-2.37.32-3.54,0a11.93,11.93,0,0,0,.48,5.34,7.16,7.16,0,0,0-3.84,9.14,15.26,15.26,0,0,0-4.72,3.53,5.33,5.33,0,0,0-.89,5.55,5.14,5.14,0,0,1,.57,1.21,2.64,2.64,0,0,1-.22,1.43c-.65,1.76-1.72,3.39-1.95,5.26s.83,4.11,2.7,4.24c.44,0,.93,0,1.26.25a1.23,1.23,0,0,1,.32.91,12.59,12.59,0,0,1-.89,3.93,5.39,5.39,0,0,0,0,4c.61,1.2,2.37,1.86,3.36.94q-1.26,3-2.54,5.95c-.5,1.18-1,2.63-.23,3.66,1,1.36,3.25.76,4.35-.5s1.62-3,2.75-4.21a10,10,0,0,0,1.39-1.52c.28-.47.44-1.05.9-1.33.94-.56,2,.8,1.76,1.86s-1.26,1.73-2.06,2.47-1.54,1.84-1.14,2.85c.2.49.64.85.82,1.35.63,1.7-1.91,2.88-2.46,4.61-.4,1.29.37,2.63,1.17,3.71,1,1.32,3.06,2.59,4,1.25a14.49,14.49,0,0,0,.61-1.59,4,4,0,0,1,1.51-1.28,8.61,8.61,0,0,0,3.14-3.77c-1.63,1.48-3.42,3.49-2.74,5.59a9.17,9.17,0,0,0,1.48,2.31c1,1.48,1.55,3.27,2.56,4.76s2.89,2.69,4.58,2.06a4.07,4.07,0,0,0,6.11,5,3.55,3.55,0,0,1,1.24-.81,2.85,2.85,0,0,1,1.56.29,8.81,8.81,0,0,0,8.93-2.08l-1.51-.8c3.19.07,6.53.12,9.41-1.26s5.12-4.67,4.2-7.73c-.4-1.33-1.33-2.77-.62-4a3.46,3.46,0,0,1,2.48-1.25l11.77-2.2c1.91-.36,3.92-.77,5.35-2.07s1.94-3.83.51-5.14a10.35,10.35,0,0,1,4.52-3.59c2-.83,4.27-1,6.33-1.73s4.09-2.32,4.29-4.51-2.53-4.31-4.26-3c.8-3.21,6.63-2.51,7.63-5.67.81-2.56-2.33-4.44-3.75-6.72.49-.86,1.51-1.3,2-2.14,1.09-1.77-.58-4-2.29-5.13s-3.84-2.41-4-4.48,2-4.16,1.16-6.13a2.35,2.35,0,0,0-2.93-1.23c-.91-4-8.41-2.25-9.93-6a1.49,1.49,0,0,1-.1-1,1.67,1.67,0,0,1,.47-.68,16.93,16.93,0,0,1,3.48-1.9c1.16-.64,2.24-1.85,2-3.15s-2.61-1.61-2.78-.3a2.93,2.93,0,0,0-4.59.43,3.14,3.14,0,0,0-3.84-1A9.13,9.13,0,0,0,356.31,79" style="fill:#263238"></path><path d="M331.78,116.94c2.12-5.16,6.85-8.8,11.81-11.34a14.21,14.21,0,0,1,6.66-2c2.34,0,4.79,1.32,5.58,3.51l-1,3.79c-.6,6.18-6.23,10.47-9.49,15.76-1.42,2.3-2.75,5.13-5.38,5.75a5.82,5.82,0,0,1-4.08-.77C331,129,329.66,122.1,331.78,116.94Z" style="fill:#67C38D"></path><path d="M326.18,145.05a12.46,12.46,0,0,1,4.13-15.44c-1.69-3.25-.05-7.43,2.76-9.77s6.5-3.27,10.06-4.15c3.38-7.87,13.74-11.86,21.53-8.3,5.48-5.43,14.75-4.65,21.61-1.12a19.83,19.83,0,0,0,5.17,2.23,33.58,33.58,0,0,0,4.14.23c7.59.44,13.92,7.07,15.47,14.52a14,14,0,0,0,.95,3.51c.72,1.42,2,2.43,3.09,3.63a12.07,12.07,0,0,1,2.83,9.62c-.44,2.9-1.95,5.77-1.24,8.61.35,1.43,1.24,2.7,1.45,4.15.6,4.21-4.56,7.4-4.55,11.66,0,.86.23,1.72.3,2.58a7.42,7.42,0,0,1-1.43,5c-.82,1.1-2,2-2.32,3.35a12,12,0,0,0,0,3.11c0,2.54-7.09,11-9.46,11.87L337.4,178.64a12,12,0,0,1-7.16-11.94,4.34,4.34,0,0,0-.14-2.43,5.22,5.22,0,0,0-1.5-1.46c-3.65-3-3.05-8.66-1.73-13.17a5.87,5.87,0,0,0,.34-1.94A7.14,7.14,0,0,0,326.18,145.05Z" style="fill:#263238"></path><path d="M344.17,148.64c2-11.22,11.49-22.7,23.66-26,7.67-2.09,13.14-1,16.9-.76a26.06,26.06,0,0,1,14.29,6c3.33,1.49,13.82,15.66,12,28.46-2,14.23-5,31.52-8.83,41.66-7.67,20.39-24.38,19.76-24.38,19.76s-1.54,14.93-1.54,14.93L331,222.92Z" style="fill:#cc675f"></path><path d="M371.35,188.38a4.49,4.49,0,0,1,2-2.53,4.61,4.61,0,0,1,5.6.51,6.23,6.23,0,0,1,1.48,6.11h0a5.68,5.68,0,0,1-4.34,1.72c-.26,0-.51-.05-.76-.09a5,5,0,0,1-3.17-1.84A4.51,4.51,0,0,1,371.35,188.38Z" style="fill:#9d4841"></path><path d="M403.51,172.76c-.41.28-2.15-1.65-5.06-2.24s-5.34.42-5.58,0c-.12-.19.35-.75,1.42-1.24a7.54,7.54,0,0,1,4.56-.44,7.28,7.28,0,0,1,3.93,2.22C403.53,171.93,403.71,172.63,403.51,172.76Z" style="fill:#263238"></path><path d="M382.9,182.93c0-.16,1.89-.1,4.89.12.76.08,1.5.08,1.73-.41a3.92,3.92,0,0,0,0-2.3c-.33-1.94-.67-4-1-6.11-1.4-8.67-2.25-15.75-1.9-15.8s1.77,6.94,3.17,15.61q.48,3.21.93,6.13a4.41,4.41,0,0,1-.21,3A2,2,0,0,1,389,184a5.77,5.77,0,0,1-1.3-.09C384.7,183.46,382.87,183.1,382.9,182.93Z" style="fill:#263238"></path><path d="M377.83,217.76a54.7,54.7,0,0,1-26.68-13.32s4.25,16.14,25.75,18.5Z" style="fill:#9d4841"></path><path d="M394.88,160.22c.49-.73,2.77-.28,5.42-.54s4.85-1,5.44-.34c.26.32,0,1-.93,1.77a8.45,8.45,0,0,1-8.75.71C395.05,161.23,394.67,160.58,394.88,160.22Z" style="fill:#263238"></path><path d="M364.6,164.93c.28.41,2.6-.77,5.52-.27s4.83,2.32,5.21,2c.18-.13-.05-.83-.87-1.67a7.62,7.62,0,0,0-4.1-2.05,7.31,7.31,0,0,0-4.47.66C364.87,164.15,364.46,164.74,364.6,164.93Z" style="fill:#263238"></path><path d="M379.28,157.31c-.42-.91-3.36-1.39-6.59-2.72s-5.75-2.91-6.65-2.53c-.41.2-.24,1,.7,2.09a13,13,0,0,0,4.9,3.27,12.67,12.67,0,0,0,5.77,1C378.81,158.22,379.45,157.74,379.28,157.31Z" style="fill:#263238"></path><path d="M343.55,169.33c.32-1.58-.73-5.65-2.23-6.21-4-1.49-11.54-2.69-13.77,7.8-3.05,14.35,12,14.45,12.1,14.05S342.45,174.75,343.55,169.33Z" style="fill:#cc675f"></path><path d="M336.81,178.88c-.06-.06-.29.13-.75.23a2.56,2.56,0,0,1-1.88-.36c-1.4-.88-2.16-3.56-1.68-6.16a8.33,8.33,0,0,1,1.46-3.43,3,3,0,0,1,2.28-1.52,1.3,1.3,0,0,1,1.33,1c.11.44,0,.71,0,.75s.36-.17.37-.79a1.64,1.64,0,0,0-.38-1,2,2,0,0,0-1.3-.66,3.58,3.58,0,0,0-3.08,1.67,8.7,8.7,0,0,0-1.72,3.82c-.52,2.91.38,5.93,2.33,7a2.72,2.72,0,0,0,2.37.1C336.71,179.23,336.85,178.92,336.81,178.88Z" style="fill:#9d4841"></path><path d="M414.28,157.22c-2.53-2.41-3.88-5.26-3-8.64-2,.18-3.49-2.7-4.27-4.6s-2-3-1.49-5a2.36,2.36,0,0,0,.1-1.2c-.18-.61-.83-.93-1.39-1.24a9.83,9.83,0,0,1-5-8,20.66,20.66,0,0,1-10.18-.39A7.93,7.93,0,0,1,376,124.89a7.12,7.12,0,0,1-5.38,2.49,21,21,0,0,1-6-.9,8.4,8.4,0,0,1-7.33,8.23,2,2,0,0,0-1.5.52,2.1,2.1,0,0,0-.11,1.64,6.61,6.61,0,0,1-6,7.37,4.94,4.94,0,0,1-2,7.49c-.59.21-1.35.45-1.39,1.07a1.37,1.37,0,0,0,.19.68,9.53,9.53,0,0,1,1.29,5.21c-.23,1.81-1.84,3.55-3.63,3.27a4.72,4.72,0,0,1,1.18,3.52c-.23,1.25-1.76,2.26-2.83,1.58-.46-.3-7.33-3.17-7.55-3.66-2.94-6.35,3.42-11.41,5.23-18.17a45.51,45.51,0,0,1,10.18-18.14,33.39,33.39,0,0,1,6.52-5.88A44.21,44.21,0,0,1,366,117c4.09-1.52,8.29-3,12.65-3.14,8.13-.24,15.61,4.23,22.16,9a34.33,34.33,0,0,1,6.86,6.2,31,31,0,0,1,4.82,9.94c1.63,5.09,2.75,10.45,2.19,15.77" style="fill:#263238"></path><path d="M418.13,152.77a5.93,5.93,0,0,0-.46-1.7c-.21-.54-.53-1.18-.79-2a7,7,0,0,1-.26-2.85,20.85,20.85,0,0,1,.79-3.54,16,16,0,0,0,.75-4.29,12.2,12.2,0,0,0-1-4.92,11.92,11.92,0,0,0-1.36-2.39,17.68,17.68,0,0,0-1.93-2.15,9.31,9.31,0,0,1-1.8-2.33,12.21,12.21,0,0,1-.81-3A19.68,19.68,0,0,0,404.24,112a17.33,17.33,0,0,0-3.19-2,15.48,15.48,0,0,0-3.69-1.2,18.58,18.58,0,0,0-2-.24c-.66,0-1.33,0-2,0a9.46,9.46,0,0,1-3.84-.78c-1.23-.51-2.4-1.23-3.66-1.83a24.33,24.33,0,0,0-3.93-1.55,25.61,25.61,0,0,0-4.21-.9,22.74,22.74,0,0,0-4.37-.08,14.43,14.43,0,0,0-8.21,3.31l-.67.6.24,0a17,17,0,0,0-21.82,8.42l.15-.12a47.37,47.37,0,0,0-5.58,1.63,15.61,15.61,0,0,0-4.87,2.85,10,10,0,0,0-2.87,4.58,6.91,6.91,0,0,0,.38,5.14l.06-.24a12.11,12.11,0,0,0-4.8,6.71,12.43,12.43,0,0,0,0,7.45,11.5,11.5,0,0,0,.67,1.62c.26.5.53,1,.73,1.48a3.18,3.18,0,0,1,.22,1.51,9.46,9.46,0,0,1-.34,1.49,23.69,23.69,0,0,0-1,5.48,11.68,11.68,0,0,0,.58,4.44,7.06,7.06,0,0,0,1.76,2.79c.64.64,1.26,1,1.57,1.31a2.39,2.39,0,0,1,.43.54,1.65,1.65,0,0,0-.39-.58c-.31-.36-.92-.71-1.53-1.35a7,7,0,0,1-1.69-2.76,11.62,11.62,0,0,1-.52-4.38,24.47,24.47,0,0,1,1-5.42,9.24,9.24,0,0,0,.37-1.53,3.43,3.43,0,0,0-.23-1.64,15.21,15.21,0,0,0-.74-1.52,13.57,13.57,0,0,1-.64-1.57,12.14,12.14,0,0,1,0-7.26,11.79,11.79,0,0,1,4.69-6.5l.14-.09-.08-.15a6.56,6.56,0,0,1-.35-4.86,9.81,9.81,0,0,1,2.78-4.4,15.19,15.19,0,0,1,4.74-2.75,43.87,43.87,0,0,1,5.54-1.61l.1,0,0-.09a16.6,16.6,0,0,1,21.25-8.19l.13.06.12-.1.65-.58a14.08,14.08,0,0,1,8-3.2,21.83,21.83,0,0,1,4.28.08,25.17,25.17,0,0,1,8,2.39c1.24.59,2.42,1.31,3.69,1.84a9.6,9.6,0,0,0,2,.62,11.66,11.66,0,0,0,2,.18c.67,0,1.33,0,2,0a17.17,17.17,0,0,1,1.91.23,15.15,15.15,0,0,1,3.6,1.16,16.68,16.68,0,0,1,3.12,2,19.25,19.25,0,0,1,7,11.44,11.88,11.88,0,0,0,.85,3.06,9.37,9.37,0,0,0,1.87,2.41,17.69,17.69,0,0,1,1.91,2.1,11.88,11.88,0,0,1,1.34,2.33,12,12,0,0,1,1,4.8,16.26,16.26,0,0,1-.71,4.24,20.77,20.77,0,0,0-.76,3.58,7,7,0,0,0,.31,2.91c.28.81.6,1.44.82,2a8,8,0,0,1,.44,1.24C418.09,152.62,418.12,152.77,418.13,152.77Z" style="fill:#455a64"></path><path d="M372.05,105.6s.43-.14,1.19-.34a9.81,9.81,0,0,1,3.32-.28,9.22,9.22,0,0,1,4.59,1.65,9.48,9.48,0,0,1,3.51,4.76,9,9,0,0,1,.39,1.77,1.84,1.84,0,0,1-.42,1.5l-.45.42.62,0a6.09,6.09,0,0,1,4.34,1.43,5.9,5.9,0,0,1,1.9,3.15,6.5,6.5,0,0,1,.08,2.49c-.1.58-.21.88-.18.89s.05-.06.11-.21a3.3,3.3,0,0,0,.21-.65,6.09,6.09,0,0,0-1.88-5.95,6.38,6.38,0,0,0-4.61-1.58l.16.37a2.23,2.23,0,0,0,.55-1.84,8,8,0,0,0-.4-1.87,9.82,9.82,0,0,0-3.7-5,9.44,9.44,0,0,0-4.8-1.62,8.82,8.82,0,0,0-3.38.43,5.25,5.25,0,0,0-.87.34C372.14,105.53,372,105.59,372.05,105.6Z" style="fill:#455a64"></path><path d="M345.38,117.38a2.16,2.16,0,0,0,.4.62,9.87,9.87,0,0,0,1.4,1.46,7,7,0,0,0,2.69,1.44,5.24,5.24,0,0,0,3.79-.36l-.31-.11.3.68c.12.22.25.44.38.66a8.82,8.82,0,0,0,3.14,3,9,9,0,0,0,3.34,1.13,8,8,0,0,0,2.37-.06,2.83,2.83,0,0,0,.83-.25,12.58,12.58,0,0,1-3.16,0,9.41,9.41,0,0,1-3.18-1.17,8.8,8.8,0,0,1-3-2.84c-.12-.22-.24-.42-.35-.63s-.2-.43-.29-.64l-.1-.22-.21.11a4.91,4.91,0,0,1-3.48.36,6.93,6.93,0,0,1-2.61-1.29C346,118.19,345.44,117.33,345.38,117.38Z" style="fill:#455a64"></path><path d="M335.08,129.18a.8.8,0,0,0,0,.27,2.67,2.67,0,0,0,.18.76,3.9,3.9,0,0,0,2,2,7.43,7.43,0,0,0,4.19.39c.79-.12,1.6-.23,2.46-.44a4,4,0,0,0,2.35-1.41l.13-.21-.36,0a16.85,16.85,0,0,0,3.75,3.43,7.52,7.52,0,0,0,4,1.23,5.48,5.48,0,0,0,2.72-.62,3.88,3.88,0,0,0,.63-.43c.13-.12.19-.18.18-.19s-.3.2-.89.46a5.57,5.57,0,0,1-2.63.47,7.41,7.41,0,0,1-3.74-1.26,17.21,17.21,0,0,1-3.63-3.37l-.19-.23-.17.26a1.74,1.74,0,0,0-.11.18,3.66,3.66,0,0,1-2.11,1.24,23.79,23.79,0,0,1-2.39.45,7.37,7.37,0,0,1-4-.26,3.85,3.85,0,0,1-2-1.8A6.47,6.47,0,0,1,335.08,129.18Z" style="fill:#455a64"></path><path d="M330.09,74.72s.24.06.66.26a3.32,3.32,0,0,1,1.39,1.36,4.63,4.63,0,0,1,.53,3,13.74,13.74,0,0,1-1.34,3.81l-.1.22.24,0a8.38,8.38,0,0,1,4.67,2.53,6.49,6.49,0,0,1,1.7,5.58,6,6,0,0,1-3.06,4.37l-.56.28.61.12a7.59,7.59,0,0,1,5,3.5,7.27,7.27,0,0,1,.94,4.79,7.81,7.81,0,0,1-1.13,3.07c-.41.66-.71,1-.68,1s.09-.06.23-.21a4,4,0,0,0,.57-.7,7.57,7.57,0,0,0,.38-8.13,7.89,7.89,0,0,0-5.2-3.73l.06.4a6.44,6.44,0,0,0,3.31-4.67,6.57,6.57,0,0,0-.23-3.27,7.4,7.4,0,0,0-1.6-2.68A8.67,8.67,0,0,0,331.53,83l.14.26a13.61,13.61,0,0,0,1.3-3.93,4.74,4.74,0,0,0-.65-3.11,3.23,3.23,0,0,0-1.53-1.35,1.94,1.94,0,0,0-.52-.15C330.15,74.71,330.09,74.71,330.09,74.72Z" style="fill:#455a64"></path><path d="M298.11,100.67a1.69,1.69,0,0,0,.21.19c.15.1.35.29.65.47a10.36,10.36,0,0,0,2.76,1.25,11.83,11.83,0,0,0,4.63.37,11.12,11.12,0,0,0,5.49-2.19l-.32-.09a9.32,9.32,0,0,0,5.57,5.74,7.08,7.08,0,0,0,7.94-2.35l-.37-.09a5.78,5.78,0,0,0,1.23,2.79,7.7,7.7,0,0,0,2.09,1.81,10.64,10.64,0,0,0,4.28,1.35,22,22,0,0,0,2.92.12,6.2,6.2,0,0,0,1-.07,6.2,6.2,0,0,0-1-.07,26.1,26.1,0,0,1-2.89-.23,10.72,10.72,0,0,1-4.13-1.39,6.32,6.32,0,0,1-3.1-4.36l-.07-.52-.3.42a6.7,6.7,0,0,1-7.45,2.18,9,9,0,0,1-5.33-5.47l-.1-.27-.22.17a10.8,10.8,0,0,1-5.28,2.17,11.65,11.65,0,0,1-4.52-.27A13.71,13.71,0,0,1,298.11,100.67Z" style="fill:#455a64"></path><path d="M308.93,124.76s0,.12.11.29a1.55,1.55,0,0,0,.74.53,6.71,6.71,0,0,0,3.28.12,8,8,0,0,0,4.28-2.31,8.15,8.15,0,0,0,2.22-5.51v0l-.36.17a9.46,9.46,0,0,0,5.6,2,10.75,10.75,0,0,0,4.76-1,11.89,11.89,0,0,0,2.75-1.77,4.13,4.13,0,0,0,.84-.85,17.57,17.57,0,0,1-3.72,2.33,10.57,10.57,0,0,1-4.61.88,9.27,9.27,0,0,1-5.34-1.91l-.35-.27v.49a7.72,7.72,0,0,1-6.12,7.51,7.11,7.11,0,0,1-3.16,0A1.48,1.48,0,0,1,308.93,124.76Z" style="fill:#455a64"></path><path d="M361.41,81.62a12.83,12.83,0,0,1-.25,4.54,9.88,9.88,0,0,1-7.47,7.24,9.94,9.94,0,0,1-3.46.18l-.27,0,0,.27a12.94,12.94,0,0,1-2,8.23,10.32,10.32,0,0,1-.85,1.16,1.09,1.09,0,0,1-.88.43.76.76,0,0,1-.54-.29c-.08-.12-.08-.21-.1-.21s0,.09,0,.25a.81.81,0,0,0,.59.4,1.25,1.25,0,0,0,1.06-.43,8.39,8.39,0,0,0,.92-1.16,12.73,12.73,0,0,0,2.17-8.43l-.24.24a10.41,10.41,0,0,0,9-3.28,10.3,10.3,0,0,0,2.55-7.89,8.27,8.27,0,0,0-.17-.92A.88.88,0,0,0,361.41,81.62Z" style="fill:#455a64"></path><path d="M380.19,193.33c.1.16-1.11,1.13-3.52,1.4a7.17,7.17,0,0,1-2,0,4.25,4.25,0,0,1-2.24-1.06,6.34,6.34,0,0,1-1.5-2.18,5.48,5.48,0,0,1-.41-2.88,6.39,6.39,0,0,1,1.12-2.64,4.45,4.45,0,0,1,2.26-1.66,5.15,5.15,0,0,1,2.45.18,11.17,11.17,0,0,1,1.82.7,17.52,17.52,0,0,1,2.39,1.31c.54.38.77.7.7.78s-.39,0-1-.24l-2.53-.82a11.35,11.35,0,0,0-1.7-.47,4.23,4.23,0,0,0-1.76,0,3.25,3.25,0,0,0-1.41,1.17,5.32,5.32,0,0,0-.81,2,4.84,4.84,0,0,0,1.36,3.78,4.5,4.5,0,0,0,3.19,1C378.77,193.66,380.1,193.11,380.19,193.33Z" style="fill:#263238"></path><path d="M385.52,154.3a2.72,2.72,0,0,1,.15,1.6,5.39,5.39,0,0,1-5.4,4.82,2.65,2.65,0,0,1-1.57-.33c0-.08.61.05,1.55,0a5.87,5.87,0,0,0,3.3-1.4,5.78,5.78,0,0,0,1.76-3.12C385.5,154.92,385.43,154.31,385.52,154.3Z" style="fill:#9d4841"></path><path d="M416.51,248.55s7.79,10.65,12.42,34.7,10.72,51.79-1.69,60.32c-6.65,4.58-23.28-16.71-23.28-16.71l-4.82-50-4.71-14.94Z" style="fill:#cc675f"></path><path d="M412.6,292l27.57-9.63S415.26,229.88,402.8,223c-8.37-3.47-20.69-1.89-20.69-1.89-13.11,14.19-33.91,7-51.42-6.9-1.37-.3-31.12,5.41-37.95,10.8-15.39,12.15-20.45,74.6-20.45,74.6l31.2-4.23-1.21,48.79L297.67,351a4.9,4.9,0,0,0,1.7,7.06l66.33,37.42,32.5-32.39a7.35,7.35,0,0,0-1.76-11.75h0l14.38-61.95Z" style="fill:#455a64"></path><path d="M403.89,246.66a3.14,3.14,0,0,1,.23.45l.57,1.3c.26.57.55,1.27.85,2.09s.69,1.75,1,2.8c.73,2.09,1.47,4.62,2.17,7.46a89.5,89.5,0,0,1,1.7,9.34,90.75,90.75,0,0,1,.63,9.47c0,2.92-.09,5.55-.29,7.74-.07,1.1-.21,2.09-.31,3s-.21,1.62-.31,2.23-.18,1-.25,1.4a2.7,2.7,0,0,1-.11.48,1.72,1.72,0,0,1,0-.5c0-.37.09-.84.16-1.41s.16-1.35.23-2.22.19-1.86.24-3c.16-2.19.23-4.81.19-7.71s-.26-6.1-.67-9.42-1-6.47-1.65-9.31-1.38-5.35-2.07-7.45c-.31-1.05-.67-2-.95-2.81s-.55-1.54-.78-2.11l-.49-1.34A1.5,1.5,0,0,1,403.89,246.66Z" style="fill:#263238"></path><path d="M318.56,255.78a1.3,1.3,0,0,1,0,.19c0,.15,0,.33.09.55.06.52.16,1.22.28,2.12.23,1.89.56,4.57,1,7.89.8,6.74,1.89,16.07,3.13,26.62l0,.22-.23,0-6.12.82c-12.31,1.57-23.47,2.81-31.52,3.87l-9.54,1.28-2.6.35-.67.09h-.23s.07,0,.22-.06l.67-.13,2.58-.44c2.24-.35,5.49-.86,9.52-1.42,8.05-1.14,19.21-2.43,31.51-4l6.12-.81-.2.25c-1.18-10.56-2.22-19.9-3-26.65-.35-3.32-.64-6-.84-7.9-.08-.9-.15-1.61-.2-2.14,0-.22,0-.4,0-.55S318.55,255.78,318.56,255.78Z" style="fill:#263238"></path><path d="M335.85,355.14a2.88,2.88,0,0,1,.62,0l1.73.19c.76.09,1.68.2,2.75.29s2.3.24,3.65.33c2.71.22,5.93.38,9.52.46s7.53,0,11.66-.27,8.05-.69,11.61-1.17,6.73-1.07,9.38-1.62c1.33-.26,2.52-.55,3.57-.78s2-.44,2.69-.63l1.7-.4a2.48,2.48,0,0,1,.6-.11,3.6,3.6,0,0,1-.57.2l-1.68.48c-.73.21-1.62.46-2.67.71s-2.24.57-3.57.84c-2.65.6-5.83,1.19-9.39,1.72s-7.49.95-11.64,1.22-8.1.29-11.7.23-6.83-.29-9.54-.56c-1.35-.11-2.57-.27-3.65-.39s-2-.26-2.74-.38l-1.73-.27A2.88,2.88,0,0,1,335.85,355.14Z" style="fill:#263238"></path><path d="M348.24,336.75a9.06,9.06,0,0,1,1.25-.57c.82-.34,2-.85,3.43-1.51a86.83,86.83,0,0,0,20.7-13.16c1.2-1,2.15-1.87,2.79-2.46a6.3,6.3,0,0,1,1-.88,8.72,8.72,0,0,1-.92,1c-.61.63-1.53,1.51-2.7,2.57A76.26,76.26,0,0,1,353.06,335c-1.46.62-2.66,1.08-3.5,1.37A7.1,7.1,0,0,1,348.24,336.75Z" style="fill:#263238"></path><path d="M313,311.51c-.93.93-11.18,17-11.18,24.92s2.33,22.83,14.68,19.57,18.63-15.61,28.18-36.11,29.59-60.21,29.59-60.21l-18.87-11.09Z" style="fill:#cc675f"></path><path d="M318.31,299.61l-.95-8.66L281,295.75a260.76,260.76,0,0,0,5.49,29.64c4.08,14.7,14,34.48,27.61,30S318.31,299.61,318.31,299.61Z" style="fill:#cc675f"></path><path d="M395.07,251.8l32.52,59.84s13.89,20.83-2.26,32.21-30.24-21.09-35.44-33.53-13.59-48.24-13.59-48.24Z" style="fill:#cc675f"></path><path d="M351.09,255.56a6.19,6.19,0,0,1-.4.67l-1.22,1.85c-1.09,1.64-2.64,3.94-4.53,6.78-3.85,5.7-9.2,13.57-15.2,22.19S318.2,303.41,314.14,309c-2,2.78-3.7,5-4.86,6.55-.56.74-1,1.33-1.35,1.76a5.63,5.63,0,0,1-.49.6,4.4,4.4,0,0,1,.42-.65l1.27-1.82,4.74-6.63c4-5.6,9.49-13.36,15.49-22l15.3-22.11c1.95-2.8,3.54-5.07,4.66-6.69l1.29-1.8A5.38,5.38,0,0,1,351.09,255.56Z" style="fill:#9d4841"></path><path d="M423,476.18c-3.07-15.38-6.38-38.75-6.38-38.75s-3.89-24.6-4.93-34.71c-1.2-11.75-11.83-45.86-11.83-45.86-26.08,23.33-101.49-.4-101.49-.4C271.69,396,267.44,446,269.76,476.18h73.82l1.59-18.26,4.67,18.26Z" style="fill:#263238"></path><path d="M336.76,372.89a2,2,0,0,1-.23.53c-.18.33-.4.85-.78,1.47a29.53,29.53,0,0,1-3.63,4.93,41.76,41.76,0,0,1-16.8,11,75.91,75.91,0,0,1-19.77,3.91c-2.57.2-4.66.29-6.1.33l-1.66,0a2.17,2.17,0,0,1-.58,0,2.54,2.54,0,0,1,.57-.08l1.66-.13c1.43-.1,3.52-.25,6.08-.5a80.3,80.3,0,0,0,19.62-4,42.81,42.81,0,0,0,16.71-10.71,33.17,33.17,0,0,0,3.72-4.8C336.34,373.57,336.72,372.87,336.76,372.89Z" style="fill:#455a64"></path><path d="M365.63,375.63a2.82,2.82,0,0,1,0,.64c0,.47-.09,1.07-.15,1.81-.17,1.64-.39,3.89-.67,6.65l-2.4,21.94c-1,8.56-1.84,16.33-2.93,21.88-.52,2.78-1.06,5-1.47,6.53-.2.77-.38,1.35-.5,1.75a3,3,0,0,1-.22.6,2.65,2.65,0,0,1,.11-.63c.11-.45.25-1,.41-1.77.35-1.53.83-3.77,1.31-6.55,1-5.55,1.81-13.3,2.77-21.87s1.89-16.25,2.55-21.92c.35-2.75.63-5,.84-6.63.1-.74.19-1.34.25-1.81A3.52,3.52,0,0,1,365.63,375.63Z" style="fill:#455a64"></path><path d="M408.69,387.94a5.75,5.75,0,0,1-1.2.07,12,12,0,0,1-1.4-.05c-.54,0-1.17-.07-1.84-.19a26.62,26.62,0,0,1-4.71-1.13,27.87,27.87,0,0,1-10.11-6.06,27.09,27.09,0,0,1-3.22-3.62,18.24,18.24,0,0,1-1-1.54,10.37,10.37,0,0,1-.7-1.21,5.73,5.73,0,0,1-.5-1.08c.09-.06.86,1.47,2.54,3.61a29.38,29.38,0,0,0,3.24,3.49,29.69,29.69,0,0,0,9.95,6,29.11,29.11,0,0,0,4.61,1.21C407,387.87,408.69,387.83,408.69,387.94Z" style="fill:#455a64"></path><path d="M346.54,212.68S371.49,182.79,374,181c4.92-3.53,14.8-4.19,18-1.54,1.87,1.56,22.72,20.1,22.72,20.1l-6.23,13-23.38,17.88Z" style="fill:#fff"></path><path d="M346.54,212.68l.74.32,2.09.94,7.87,3.56,27.93,12.72-.22,0,23.36-17.91-.07.09c2-4.16,4.09-8.52,6.22-13l.06.3-1.84-1.63L399.3,186.27l-6.36-5.63c-1.88-2.16-4.71-2.52-7.31-2.56a22.73,22.73,0,0,0-3.88.29,22.31,22.31,0,0,0-3.67.88,15,15,0,0,0-3.33,1.51,12.76,12.76,0,0,0-2.61,2.37c-3.19,3.47-6.06,6.8-8.69,9.83l-12.36,14.45-3.35,3.92-.89,1-.31.33.27-.36.85-1,3.28-4c2.87-3.45,7-8.44,12.24-14.55,2.61-3,5.47-6.39,8.65-9.88l1.24-1.3.69-.63c.23-.2.51-.34.76-.52a15.85,15.85,0,0,1,3.42-1.57,22.94,22.94,0,0,1,3.74-.91,22.48,22.48,0,0,1,3.95-.3,16,16,0,0,1,4.05.49,7.38,7.38,0,0,1,1.94.83,13.29,13.29,0,0,1,1.63,1.33l6.37,5.63L413,197.75l1.84,1.63.14.12-.08.17-6.23,13,0,.06,0,0-23.4,17.86-.11.08-.11,0-28-13L349.24,214l-2-.95Z" style="fill:#263238"></path><path d="M388.67,192.68a3.16,3.16,0,0,1,3.07,1.51c3,4.69,13.95,21.93,14.69,25.65.86,4.31-2.44,5.51-2.44,5.51s1.11,6.11-3.57,8.82a6.55,6.55,0,0,1-3.58,7L396,253.41l-19.65,8.67L375,257.75l4.73-11.44,3.83-14.85-1.15-21.65s-.2-5,3.25-3.89c0,0-2.73-3.77-1-6.46a2.79,2.79,0,0,1,3-1s-1.77-2.72-.7-4.66A2.1,2.1,0,0,1,388.67,192.68Z" style="fill:#cc675f"></path><path d="M400.07,220a3.81,3.81,0,0,1-.58-.82c-.34-.54-.83-1.34-1.42-2.33-1.18-2-2.78-4.74-4.52-7.79s-3.29-5.84-4.39-7.87c-.55-1-1-1.83-1.27-2.4a3.6,3.6,0,0,1-.41-.91,3.67,3.67,0,0,1,.58.83c.35.54.83,1.34,1.42,2.33,1.18,2,2.78,4.74,4.52,7.79s3.28,5.83,4.38,7.85c.55,1,1,1.83,1.28,2.41A3.6,3.6,0,0,1,400.07,220Z" style="fill:#9d4841"></path><path d="M395.28,225.15c-.12.07-2.59-4.58-5.51-10.37s-5.19-10.53-5.07-10.6,2.59,4.58,5.52,10.38S395.41,225.09,395.28,225.15Z" style="fill:#9d4841"></path><path d="M389.39,229.26a80.21,80.21,0,0,1-3.64-8.19,83.9,83.9,0,0,1-3.18-8.37,78.18,78.18,0,0,1,3.64,8.18A82.46,82.46,0,0,1,389.39,229.26Z" style="fill:#9d4841"></path><path d="M367.58,193.86s-14.22,23.49-15.3,28.23S354,249.46,354,249.46L373.61,260s6.9-10.13,7.76-18.75,1.08-12.71,1.08-12.71,3.66-17,1.94-19-2.81-1.5-2.81-1.5,4.37-8.41,3.27-10.78a4.3,4.3,0,0,0-3.43-2.5s.55-3.11-1.75-4.12c-2.61-1.14-4.77,2.31-4.77,2.31S371.06,188,367.58,193.86Z" style="fill:#cc675f"></path><path d="M374.9,193c.13.07-2.58,5.62-6,12.4s-6.39,12.24-6.51,12.18,2.59-5.62,6.06-12.4S374.78,192.94,374.9,193Z" style="fill:#9d4841"></path><path d="M381.42,194.81a5.63,5.63,0,0,1-.46,1.08c-.38.76-.85,1.71-1.4,2.84-1.25,2.5-2.88,5.76-4.69,9.36s-3.53,6.95-4.79,9.31c-.63,1.18-1.15,2.13-1.53,2.79a4.87,4.87,0,0,1-.62,1,5.19,5.19,0,0,1,.45-1.07c.37-.77.84-1.73,1.38-2.86,1.25-2.5,2.87-5.76,4.66-9.37s3.55-6.94,4.82-9.3c.64-1.18,1.17-2.13,1.55-2.77A5.3,5.3,0,0,1,381.42,194.81Z" style="fill:#9d4841"></path><path d="M375,224.34A1.05,1.05,0,0,1,375,224c.08-.24.17-.53.28-.89.25-.78.63-1.91,1.14-3.35,1-2.87,2.6-6.94,4.76-11.72l0-.11h.11a3.24,3.24,0,0,1,2.2.41,3.17,3.17,0,0,1,1.33,1.92,18.08,18.08,0,0,1-.06,4.76c-.34,3.23-.88,6.61-1.49,10.1-.14.75-.27,1.48-.4,2.17v0c-.51,4.79-1,9.32-1.43,13.44,0,.52-.11,1-.16,1.52s-.17,1-.25,1.49l-.36,1.41c-.14.46-.28.9-.42,1.34a47.66,47.66,0,0,1-1.9,4.74c-1.31,2.83-2.52,5-3.4,6.52-.43.75-.79,1.31-1,1.7a3.3,3.3,0,0,1-.4.57,4.87,4.87,0,0,1,.32-.62c.24-.44.55-1,.95-1.74.82-1.52,2-3.74,3.25-6.57.62-1.42,1.26-3,1.83-4.72a22.69,22.69,0,0,0,1.13-5.69c.42-4.12.88-8.65,1.38-13.44h0c.12-.69.26-1.42.39-2.16.62-3.49,1.16-6.87,1.51-10.07a18.27,18.27,0,0,0,.1-4.59,2.68,2.68,0,0,0-1.13-1.66,2.84,2.84,0,0,0-1.88-.38l.15-.12c-2.2,4.76-3.82,8.8-4.92,11.64-.52,1.39-.94,2.49-1.25,3.3l-.34.87A1,1,0,0,1,375,224.34Z" style="fill:#9d4841"></path><path d="M357.86,224.08s-.15.34-.64.6a2.62,2.62,0,0,1-3.65-1.36c-.2-.52-.15-.87-.09-.87s.15.3.41.72a2.67,2.67,0,0,0,3.19,1.19C357.55,224.21,357.81,224,357.86,224.08Z" style="fill:#9d4841"></path><path d="M364.29,228.15s-.2.34-.74.56a3,3,0,0,1-3.92-1.53c-.25-.53-.23-.91-.17-.92s.18.32.48.75a3.34,3.34,0,0,0,1.53,1.25,3.41,3.41,0,0,0,2,.12C364,228.26,364.25,228.09,364.29,228.15Z" style="fill:#9d4841"></path><path d="M370.76,230.94c0,.05-.16.36-.67.66a3,3,0,0,1-4.1-1c-.31-.5-.34-.88-.28-.89s.22.29.57.68a3.19,3.19,0,0,0,3.66.92C370.43,231.1,370.71,230.89,370.76,230.94Z" style="fill:#9d4841"></path></g><g id="freepik--character-1--inject-17"><path d="M250,476.18H104.64c-.1-2.15,6.65-70.19,9.73-93H239.72s-.55,6.55,3.41,19.93C248,419.53,250,476.18,250,476.18Z" style="fill:#263238"></path><path d="M159.82,476.18c-.14,0-.26-9.73-.26-21.74s.12-21.75.26-21.75.27,9.73.27,21.75S160,476.18,159.82,476.18Z" style="fill:#455a64"></path><path d="M238.4,417.67s-.1.12-.31.3-.53.46-1,.77a30.56,30.56,0,0,1-3.81,2.43,33.3,33.3,0,0,1-28.91,1.39,31,31,0,0,1-4-2.05c-.46-.27-.8-.52-1-.67a1.61,1.61,0,0,1-.33-.27,11.81,11.81,0,0,1,1.46.76,37.17,37.17,0,0,0,4.07,1.89,34.37,34.37,0,0,0,28.6-1.38,36.18,36.18,0,0,0,3.86-2.27A12.11,12.11,0,0,1,238.4,417.67Z" style="fill:#455a64"></path><path d="M85.72,281.57l-8.25,59.14L62.16,421.34l21,2.33s17.68-45.43,21.53-57.32c5.22-16.13,8.44-22.14,8.44-22.14l8.74-54.38Z" style="fill:#ffbf9d"></path><path d="M81.45,416.48s3.36,13,1.37,19.24-4.27,9.32-4.43,16S80.23,468,75,469.17s-4.58.16-5.49-3.82,0-15.12,0-15.12l-.41-9.47L65.72,427Z" style="fill:#ffbf9d"></path><path d="M62.66,418c-.15.46-9.93,26-9.62,28.86s1.83,20.16,2.9,21.23,11.76,7.33,11.76,7.33H77.78a5,5,0,0,0-1.52-3.51l8.24-3.82s1-3.66-2.44-4.73l3.66-2.29s-1.43-2.89-4.27-2.45-4.13.61-4.13.61l-4.88-4.73-1.07-7.79,10.08-30.24Z" style="fill:#ffbf9d"></path><path d="M82.67,422.44s0,.13.1.39.11.68.19,1.15c.15,1,.36,2.49.54,4.38.08.94.17,2,.2,3.14a11.26,11.26,0,0,1-.39,3.7,64.33,64.33,0,0,1-3.26,8.22l0-.05c-1,5.56-2.26,12-3.54,18.86A8.68,8.68,0,0,1,75,466.18a3.66,3.66,0,0,1-1.82,1.17,3.76,3.76,0,0,1-2.13-.09,5.68,5.68,0,0,1-3-2.6,7.67,7.67,0,0,1-.83-3.74c0-2.5.68-4.75.89-6.89a45.92,45.92,0,0,0,.34-6,49.15,49.15,0,0,0-.83-8.67c-.19-1-.37-1.79-.48-2.32a3.75,3.75,0,0,1-.16-.82s.1.27.26.79.36,1.3.57,2.31a45.88,45.88,0,0,1,.73,14.76c-.2,2.17-.82,4.44-.84,6.84a7.23,7.23,0,0,0,.78,3.5,5.16,5.16,0,0,0,2.78,2.35,3,3,0,0,0,3.39-.92A8.33,8.33,0,0,0,76,462.13c1.3-6.85,2.54-13.29,3.6-18.85v0a66.17,66.17,0,0,0,3.31-8.14,10.79,10.79,0,0,0,.43-3.59c0-1.13-.08-2.18-.14-3.12-.14-1.89-.3-3.37-.41-4.38,0-.47-.09-.85-.12-1.16A2,2,0,0,1,82.67,422.44Z" style="fill:#ff9a6c"></path><path d="M77.47,474.4c-.08.05-.82-1.29-2.48-3.09A20.88,20.88,0,0,0,67.22,466a5.6,5.6,0,0,1-2.48-1.37,5.15,5.15,0,0,1-.85-2.51c-.25-1.58-.48-3-.68-4.27s-.33-2.2-.42-2.88a3.76,3.76,0,0,1-.08-1.07,4.67,4.67,0,0,1,.28,1c.15.67.35,1.65.58,2.86s.5,2.68.79,4.25a4.84,4.84,0,0,0,.77,2.26,5.42,5.42,0,0,0,2.27,1.22,19.92,19.92,0,0,1,7.87,5.54A17.68,17.68,0,0,1,77,473.44,3.52,3.52,0,0,1,77.47,474.4Z" style="fill:#ff9a6c"></path><path d="M63.17,446a6.06,6.06,0,0,1,.82,3.71,5.93,5.93,0,0,1-1.1,3.64c-.15-.06.51-1.62.58-3.66S63,446.06,63.17,446Z" style="fill:#ff9a6c"></path><path d="M244.5,212.74s-4.42,33.44-6.49,45.54L234.63,334,242.25,387l1.46,1.36a5.08,5.08,0,0,1-.46,7.79c-9.32,6.93-33.1,20.95-75.06,23.08-54,2.74-57.73-17.51-57.73-17.51l2.76-52.5s-2.06-78.88-3.66-88.45c-2.27-13.66,8.88-48.89,8.88-48.89l21.74-11.16L204.27,198Z" style="fill:#67C38D"></path><path d="M118.44,211.92s-26.3,9.21-33,33.87c-4.69,17.2-13.37,48.42-13.37,48.42L111.28,301Z" style="fill:#67C38D"></path><path d="M123,209.62S134.9,233.79,155.69,241c18.09,6.26,32.32,4.72,32.32,4.72s-7,8-3.74,10.16,35.26-2.08,45-13.73l-6.93-10.54s-39.56,11.34-61.47-.15S123,209.62,123,209.62Z" style="opacity:0.30000000000000004"></path><path d="M109.19,256.62c.14,0,1.13,16.46,2.2,36.78s1.83,36.81,1.69,36.82-1.13-16.46-2.21-36.79S109,256.63,109.19,256.62Z" style="fill:#263238"></path><path d="M205.91,340.71a3.43,3.43,0,0,1-.6.32l-1.75.85c-1.52.73-3.75,1.71-6.54,2.87s-6.15,2.44-9.92,3.75-8,2.59-12.42,3.79-8.74,2.14-12.66,2.9-7.47,1.31-10.47,1.69-5.42.65-7.1.77l-1.94.14a3.19,3.19,0,0,1-.68,0,3.1,3.1,0,0,1,.67-.12l1.93-.24c1.67-.19,4.09-.5,7.07-.93s6.52-1,10.43-1.8,8.17-1.76,12.62-2.93,8.62-2.49,12.4-3.75,7.13-2.52,9.93-3.63,5.05-2.05,6.6-2.72l1.79-.75A2.72,2.72,0,0,1,205.91,340.71Z" style="fill:#263238"></path><path d="M213.5,399.17a98.05,98.05,0,0,1-12,5.51l-3,1.13c-1,.39-2.16.72-3.3,1.1-2.28.79-4.77,1.43-7.38,2.15a123.29,123.29,0,0,1-34.92,3.72c-2.71-.15-5.28-.25-7.67-.54-1.2-.14-2.36-.22-3.46-.38l-3.18-.48a98.61,98.61,0,0,1-12.93-2.84.86.86,0,0,1,.24,0l.67.14,2.57.57,1.85.42c.68.15,1.43.27,2.22.42,1.6.28,3.4.67,5.43.91l3.18.44c1.1.15,2.26.22,3.45.35,2.38.27,5,.35,7.64.49a138.68,138.68,0,0,0,17.53-.65,137.12,137.12,0,0,0,17.26-3.06c2.6-.7,5.09-1.32,7.37-2.09,1.14-.37,2.25-.69,3.3-1.07l3-1.1c1.93-.66,3.61-1.42,5.12-2,.74-.32,1.45-.59,2.08-.88l1.72-.8,2.39-1.1.63-.27Z" style="fill:#263238"></path><path d="M184.55,122.49l15.81,79.2c2.69,13.47,3.89,33.81-17.6,37.09h0c-18.86,1.44-27-15.14-29.53-27.72-1.18-6-2.18-10.93-2.34-11.54,0,0-20.55,2.13-26-17.53-2.63-9.51-6.45-29.52-9.69-47.67A38,38,0,0,1,143,90.89l1.91-.5C165.7,86.18,180.92,101.54,184.55,122.49Z" style="fill:#ffbf9d"></path><path d="M150.89,199.52s12.62-2.54,23.68-14.36c0,0-2.47,16.07-22.62,19.47Z" style="fill:#ff9a6c"></path><path d="M150.94,145.33c.47.33,2.44-2,5.77-2.67s6.14.46,6.41,0c.13-.22-.42-.89-1.65-1.45a8.55,8.55,0,0,0-5.24-.48,8.18,8.18,0,0,0-4.48,2.64C150.9,144.36,150.71,145.19,150.94,145.33Z" style="fill:#263238"></path><path d="M146.86,161c0-.18-2,0-5.15.41-.8.12-1.57.16-1.84-.33a4.06,4.06,0,0,1-.09-2.43c.24-2.07.48-4.24.74-6.5,1-9.24,1.45-16.74,1.08-16.78s-1.46,7.42-2.43,16.65l-.63,6.51a4.63,4.63,0,0,0,.4,3.14,2,2,0,0,0,1.57.8,5.83,5.83,0,0,0,1.36-.16C145,161.65,146.9,161.16,146.86,161Z" style="fill:#263238"></path><path d="M158.8,126.42c-.6-.56-2.87,1.06-5.92,2.23s-5.8,1.59-5.85,2.41c0,.38.73.81,2,1a10.7,10.7,0,0,0,9-3.53C158.84,127.51,159.08,126.69,158.8,126.42Z" style="fill:#263238"></path><path d="M132.26,134.09c-.4-.6-3,.25-6.22.55s-5.9.06-6.2.72c-.13.31.44.83,1.59,1.25a11.15,11.15,0,0,0,4.8.49,11.53,11.53,0,0,0,4.65-1.46C132,135,132.43,134.37,132.26,134.09Z" style="fill:#263238"></path><path d="M186.78,137.52c.3-.23,12.5-7.58,15.62,6s-11.17,13.93-11.29,13.55S186.78,137.52,186.78,137.52Z" style="fill:#ffbf9d"></path><path d="M194.09,151c0-.06.27.11.71.2a2.41,2.41,0,0,0,1.78-.37c1.32-.85,2-3.41,1.51-5.88a8.13,8.13,0,0,0-1.44-3.24,2.82,2.82,0,0,0-2.2-1.41,1.24,1.24,0,0,0-1.25,1c-.1.42.05.68,0,.72s-.34-.17-.36-.75a1.59,1.59,0,0,1,.34-1,1.85,1.85,0,0,1,1.23-.64,3.41,3.41,0,0,1,3,1.54,8.19,8.19,0,0,1,1.69,3.6c.54,2.76-.27,5.65-2.11,6.67a2.58,2.58,0,0,1-2.25.13C194.19,151.3,194,151,194.09,151Z" style="fill:#ff9a6c"></path><path d="M85.32,121.34a3.26,3.26,0,0,1,1.16-2.18c1.39-1.21,3.22-1.42,5-1.78A29.36,29.36,0,0,0,105.61,110a68.6,68.6,0,0,1,5.41-9.79c4.89-7.37,9.09-12.56,13.85-15.59C131,80.7,142,77.52,149.28,78.05s14.6,5,16.9,11.94c3.28-4,9.14-5.09,14.24-4.06l.11-.08c5.65.9,9.69,5.93,12.26,11s4.31,10.74,8.07,15.05c.79.89,1.73,2,1.4,3.12a2.27,2.27,0,0,1-2.14,1.46,6.82,6.82,0,0,1-2.68-.66l2.57,3.91a12.72,12.72,0,0,1-5.83.69,122.71,122.71,0,0,1-1.11,14.93c-2.21.4-4.2.94-5.34,2.42-1.54,2-1.78,5.3-5.08,4.68-1.68-.31-3.72-3.33-4.55-4.83a79.26,79.26,0,0,1-9.54-32.38,25.45,25.45,0,0,0-8.79-4.14l.28.17c-6-.9-12.62-1.63-17.43,2-3.73,2.8-5.35,7.52-7.79,11.5a31.94,31.94,0,0,1-20.43,14.51c.75,5.68,2.71,13.54,3.47,19.23l-6.42-8.13v0c-.51-.59-1-1.19-1.39-1.8l-.14-.18v0a34.31,34.31,0,0,0-2.18-2.9l0,.06c-2.55,3.26-7.81,0-6-3.75a8.22,8.22,0,0,1,1.38-2,5.65,5.65,0,0,1-5,2.36,4.44,4.44,0,0,1-3.89-3.74A3.79,3.79,0,0,1,95.78,125a12.72,12.72,0,0,1-7.43-.24C86.8,124.26,85.17,123.2,85.32,121.34Z" style="fill:#263238"></path><path d="M160.31,93.46a18.53,18.53,0,0,1,2.35,1.46A14.68,14.68,0,0,1,167,101a25.41,25.41,0,0,1,1.46,5c.35,1.84.57,3.84.82,6a52.87,52.87,0,0,0,1.07,6.58,23.66,23.66,0,0,0,1.1,3.37,7.22,7.22,0,0,0,2,3.1,3.12,3.12,0,0,0,3,.42,4.68,4.68,0,0,0,2.27-1.91,10.54,10.54,0,0,0,1-5.44l-.41.12a17.17,17.17,0,0,0,3.22,3.74,6.07,6.07,0,0,0,4.28,1.39,3.91,3.91,0,0,0,2-.75,3.37,3.37,0,0,0,1.14-1.64,3.55,3.55,0,0,0,.09-1.85,2.46,2.46,0,0,0-.93-1.43l-.18.22a13.08,13.08,0,0,0,4.9,2.42,10.75,10.75,0,0,0,1.43.27,1.59,1.59,0,0,0,.5,0,3,3,0,0,0-.49-.11c-.32-.06-.8-.16-1.4-.33a13.62,13.62,0,0,1-4.76-2.5l-.17.23a2.61,2.61,0,0,1,.69,2.94,3.09,3.09,0,0,1-1,1.46,3.5,3.5,0,0,1-1.81.65,5.65,5.65,0,0,1-4-1.33,17,17,0,0,1-3.11-3.66l-.4-.59V118a10.11,10.11,0,0,1-.92,5.2,4.12,4.12,0,0,1-2,1.71,2.61,2.61,0,0,1-2.55-.35,6.89,6.89,0,0,1-1.88-2.9,22.75,22.75,0,0,1-1.09-3.3,57,57,0,0,1-1.09-6.53c-.26-2.1-.49-4.1-.86-6a25.76,25.76,0,0,0-1.54-5,14.33,14.33,0,0,0-4.51-6.08A8.41,8.41,0,0,0,160.31,93.46Z" style="fill:#455a64"></path><path d="M102.1,124.47l.19.1.56.27a6,6,0,0,0,1,.39,11.42,11.42,0,0,0,1.34.41,17.9,17.9,0,0,0,8.84-.06,23,23,0,0,0,11.24-6.71A39.92,39.92,0,0,0,133.35,105c1-2.69,1.72-5.39,2.6-7.93a27.06,27.06,0,0,1,3.33-6.92,13.83,13.83,0,0,1,5.11-4.57,9.8,9.8,0,0,1,3-.92,11.09,11.09,0,0,1,2.88,0,11.84,11.84,0,0,1,7.44,4.24,13,13,0,0,1,1.59,2.81s0-.08-.05-.21l-.21-.59a10,10,0,0,0-1.18-2.12,11.55,11.55,0,0,0-2.8-2.62,12,12,0,0,0-4.74-1.84,11.37,11.37,0,0,0-3,0,10.22,10.22,0,0,0-3.09.92,14.16,14.16,0,0,0-5.29,4.68,27.1,27.1,0,0,0-3.42,7c-.89,2.55-1.61,5.25-2.61,7.92a39.81,39.81,0,0,1-8,13.74,23,23,0,0,1-11,6.69,18.25,18.25,0,0,1-8.72.2A30.38,30.38,0,0,1,102.1,124.47Z" style="fill:#455a64"></path><path d="M98.64,116a3.39,3.39,0,0,0,.81.37,17.13,17.13,0,0,0,2.33.68,21.79,21.79,0,0,0,3.56.48,24.17,24.17,0,0,0,4.41-.24,23.14,23.14,0,0,0,4.27-1.1,20.43,20.43,0,0,0,3.26-1.53,16,16,0,0,0,2-1.34c.45-.36.68-.57.66-.6s-1,.71-2.83,1.65a23.85,23.85,0,0,1-3.25,1.41,23.93,23.93,0,0,1-8.51,1.31,23.81,23.81,0,0,1-3.52-.37C99.86,116.38,98.67,115.94,98.64,116Z" style="fill:#455a64"></path><path d="M122.22,151.61c.47.33,2.43-2,5.76-2.67s6.14.46,6.41,0c.14-.22-.41-.88-1.65-1.45a8.55,8.55,0,0,0-5.24-.48,8.28,8.28,0,0,0-4.48,2.65C122.17,150.65,122,151.47,122.22,151.61Z" style="fill:#263238"></path><path d="M153.22,164.22a7.55,7.55,0,0,1,7.43,2.16,2.61,2.61,0,0,1,.8,2.61,3.12,3.12,0,0,1-1.06,1.14,47.74,47.74,0,0,1-5.14,3.3,4.55,4.55,0,0,1-6.05-1.54h0a4.5,4.5,0,0,1,.3-5.24A7.51,7.51,0,0,1,153.22,164.22Z" style="fill:#ff9a6c"></path><path d="M152.58,174.51c0-.08,1.46-.73,3.78-1.92a19,19,0,0,0,3.79-2.51l.47-.44a1.82,1.82,0,0,0,.34-.48,2.56,2.56,0,0,0,.27-1.22,1.61,1.61,0,0,0-.54-1.1,5,5,0,0,0-1.08-.91,9.14,9.14,0,0,0-5.16-1.64,6.64,6.64,0,0,0-4.08,1.58,5.29,5.29,0,0,0-1.74,2.42c-.21.69-.17,1.1-.22,1.1s0-.1,0-.29a2.82,2.82,0,0,1,.07-.86,5.2,5.2,0,0,1,1.7-2.65,6.91,6.91,0,0,1,4.31-1.78,9.37,9.37,0,0,1,5.45,1.69,5.65,5.65,0,0,1,1.19,1,2.16,2.16,0,0,1,.66,1.43,3.08,3.08,0,0,1-.33,1.47,2.42,2.42,0,0,1-.45.6l-.49.45a17.66,17.66,0,0,1-3.94,2.48c-1.19.57-2.18,1-2.87,1.23A4.59,4.59,0,0,1,152.58,174.51Z" style="fill:#263238"></path><path d="M141.57,133.09c.08,0,.17.37.44.93a5,5,0,0,0,1.51,1.83,5.06,5.06,0,0,0,2.2.87c.61.08,1,.05,1,.13s-.37.23-1.05.23a4.24,4.24,0,0,1-2.48-.81,4.29,4.29,0,0,1-1.54-2.11C141.47,133.51,141.51,133.09,141.57,133.09Z" style="fill:#ff9a6c"></path><path d="M134.62,137.55c0-.08.35-.11.85-.29a3.59,3.59,0,0,0,2.44-3c.08-.53,0-.87.12-.89s.23.32.25.91a3.34,3.34,0,0,1-2.72,3.31C135,137.72,134.62,137.61,134.62,137.55Z" style="fill:#ff9a6c"></path><path d="M127.32,128.21c0-.08,1.27-.11,3.31-.32a45.09,45.09,0,0,0,15.28-4.38c1.84-.9,2.93-1.55,3-1.48a3.25,3.25,0,0,1-.72.55c-.47.32-1.19.76-2.09,1.25a37.39,37.39,0,0,1-7.47,3,37,37,0,0,1-8,1.37,24.16,24.16,0,0,1-2.44.05A2.74,2.74,0,0,1,127.32,128.21Z" style="fill:#ff9a6c"></path><path d="M229.15,188.34c-5.72-2.79-19.45,2.38-21.16,3.85S185.33,200,185.33,200l-68.77-25.49A39,39,0,0,0,111,173a66.9,66.9,0,0,0-9.52-1.55c-3,0-21.69-4.43-23.84-4.19s-8.15,1.2-8.15,1.2-7.43,10.18-6.59,15,1.56,5.76,1.56,5.76.12,2.27,3.35,3.59l3.84,1.68a2.25,2.25,0,0,0-.84,2.4c.48,1.43,1.17,3.16,6.61,2.6h4.47l.78-.93s6.71-.16,7.55-.5,10.66-1.17,12.94-6.81l2.38,1s22.76,22.27,33,30.59,27.16,14.92,39.4,17.37,56-12.24,56.76-12.48a13.76,13.76,0,0,0,8.08-9.79C244.3,210.56,239.09,193.19,229.15,188.34Z" style="fill:#ffbf9d"></path><path d="M229.15,188.34s.3.15.86.47c.28.17.65.35,1.05.61l1.33,1a23.75,23.75,0,0,1,3.26,3.38,32.58,32.58,0,0,1,3.4,5.45,42.15,42.15,0,0,1,2.89,7.53,31,31,0,0,1,1.23,9.52,13.67,13.67,0,0,1-1.45,5.18,14,14,0,0,1-3.67,4.4,14.94,14.94,0,0,1-2.53,1.62,9.37,9.37,0,0,1-1.44.57l-1.46.48-6.09,1.94c-8.33,2.58-17.54,5.28-27.61,7.57a104.65,104.65,0,0,1-15.83,2.53,25.56,25.56,0,0,1-4.19-.08,20.8,20.8,0,0,1-2.09-.39c-.69-.14-1.39-.29-2.08-.47-2.76-.66-5.54-1.47-8.31-2.39a113.85,113.85,0,0,1-16.57-7,71.15,71.15,0,0,1-15.44-10.73c-9.61-8.46-19.21-17.66-29-27.18l.08,0-2.38-1,.34-.14a8.4,8.4,0,0,1-3.41,3.79,18.41,18.41,0,0,1-4.77,2.06c-1.67.51-3.44.77-5.11,1.16a46.17,46.17,0,0,1-5.33.4l-2.1.06.19-.09-.78.93-.08.1H77.46a18.51,18.51,0,0,1-2.69.09,6,6,0,0,1-2.65-.7,3.58,3.58,0,0,1-1.56-2.27,2.13,2.13,0,0,1,.07-1.45,2.9,2.9,0,0,1,.88-1.14l0,.45-4.29-1.89a5,5,0,0,1-3-3.61l0,.14a11.38,11.38,0,0,1-1-2.8c-.24-.94-.42-1.88-.59-2.82a7,7,0,0,1,.13-2.92,16.17,16.17,0,0,1,.87-2.74,52,52,0,0,1,5.59-9.75l.06-.09h.11l4.55-.67,2.26-.33L77.4,167a4.74,4.74,0,0,1,1.19,0c3,.38,5.94,1,8.85,1.6l8.64,1.72c1.42.28,2.84.54,4.25.73a9.55,9.55,0,0,0,1,.1c.35,0,.73,0,1.09.06.72.07,1.43.17,2.13.28,2.82.46,5.57,1,8.29,1.66s5.25,1.77,7.79,2.69l14.82,5.5,49.88,18.55h-.1c7-2.14,13.19-4.1,18.54-6a33.45,33.45,0,0,0,3.76-1.56,16,16,0,0,1,3.38-1.74,50.13,50.13,0,0,1,6.27-2,27.26,27.26,0,0,1,8.93-1,7.36,7.36,0,0,1,1.33.22l.53.11.41.16.72.29a10.85,10.85,0,0,0-3-.69,27.54,27.54,0,0,0-8.88,1.06,48.55,48.55,0,0,0-6.23,2.06,15.41,15.41,0,0,0-3.34,1.73,31.86,31.86,0,0,1-3.8,1.6c-5.35,2-11.56,3.93-18.53,6.09l-.05,0,0,0-49.92-18.44-14.83-5.48c-2.55-.92-5.08-2-7.75-2.67s-5.45-1.19-8.24-1.64c-.7-.11-1.4-.2-2.11-.27l-1-.06a10,10,0,0,1-1.1-.1c-1.44-.19-2.86-.46-4.29-.73l-8.63-1.72c-2.91-.56-5.85-1.21-8.81-1.58a3.91,3.91,0,0,0-1.08,0l-1.12.17-2.26.33-4.53.67.16-.1a51.25,51.25,0,0,0-5.52,9.64,15.82,15.82,0,0,0-.85,2.66,6.41,6.41,0,0,0-.12,2.72c.16.93.35,1.86.58,2.78a11.86,11.86,0,0,0,.88,2.62l0,.08v.06a3.54,3.54,0,0,0,1,1.88,5.55,5.55,0,0,0,1.8,1.29l4.28,1.88.4.17-.35.28a1.93,1.93,0,0,0-.77,2,3.17,3.17,0,0,0,1.34,2c1.45.8,3.31.67,5,.54h4.5l-.2.1.78-.93.07-.09h.12l2.1-.06a49.1,49.1,0,0,0,5.22-.38c1.74-.41,3.45-.65,5.1-1.15a18.45,18.45,0,0,0,4.63-2,7.88,7.88,0,0,0,3.21-3.54l.1-.25.24.11,2.38,1,0,0,0,0c9.81,9.52,19.41,18.73,29,27.18a78.92,78.92,0,0,0,7.39,5.9,79.86,79.86,0,0,0,7.94,4.77,113.66,113.66,0,0,0,16.5,7q4.14,1.4,8.27,2.39c.69.18,1.38.33,2.06.47a18.87,18.87,0,0,0,2,.38,24.66,24.66,0,0,0,4.12.09,103.5,103.5,0,0,0,15.76-2.5c10.06-2.26,19.26-4.94,27.6-7.5l6.08-1.92,1.47-.48a7.13,7.13,0,0,0,1.4-.54,14.11,14.11,0,0,0,2.48-1.58,13.6,13.6,0,0,0,3.6-4.29,13.2,13.2,0,0,0,1.43-5.06,30.74,30.74,0,0,0-1.18-9.44,41.88,41.88,0,0,0-2.83-7.5,32.6,32.6,0,0,0-3.34-5.45,24.6,24.6,0,0,0-3.21-3.4l-1.31-1c-.4-.26-.76-.45-1-.62Z" style="fill:#ff9a6c"></path><path d="M71.08,173.14c.1,0,.22,1.16.93,2.9a13.46,13.46,0,0,0,11,8.43c1.86.22,3,0,3,.12a2.39,2.39,0,0,1-.81.19,11.3,11.3,0,0,1-2.27.05,13,13,0,0,1-11.35-8.65,11.11,11.11,0,0,1-.54-2.21A2.4,2.4,0,0,1,71.08,173.14Z" style="fill:#ff9a6c"></path><path d="M85,195.54s-.48-.44-.86-1.4a7.06,7.06,0,0,1,1.51-7.47c.72-.73,1.3-1,1.33-1s-.44.45-1.06,1.21a8.09,8.09,0,0,0-1.61,3.37,8,8,0,0,0,.18,3.73A15,15,0,0,1,85,195.54Z" style="fill:#ff9a6c"></path><path d="M80.1,194.44c0-.06.35,0,.81.24a3.49,3.49,0,0,1,1.32,1.54,3.78,3.78,0,0,1,.31,2c-.06.52-.21.81-.28.79a11.11,11.11,0,0,0-.5-2.57A7,7,0,0,0,80.1,194.44Z" style="fill:#ff9a6c"></path><path d="M71.27,194.28a19.48,19.48,0,0,1,2.23.2,16.27,16.27,0,0,0,5.3-.35,7.75,7.75,0,0,0,2.61-1.2A6.14,6.14,0,0,0,83,191.2a8,8,0,0,0,.77-2,3.14,3.14,0,0,1-.45,2.23,6,6,0,0,1-1.61,1.93,7.71,7.71,0,0,1-2.76,1.33,14.28,14.28,0,0,1-5.48.21A6.43,6.43,0,0,1,71.27,194.28Z" style="fill:#ff9a6c"></path><path d="M65.41,191.53a29.55,29.55,0,0,1,2.89.66,16.33,16.33,0,0,0,7,.2,9.62,9.62,0,0,0,3.5-1.52A8.25,8.25,0,0,0,81,188.6,10.56,10.56,0,0,0,82,185.9a1.88,1.88,0,0,1,0,.81,6.09,6.09,0,0,1-.74,2.08,7.89,7.89,0,0,1-2.17,2.47,9.83,9.83,0,0,1-3.68,1.64,15.11,15.11,0,0,1-7.2-.35A11.51,11.51,0,0,1,65.41,191.53Z" style="fill:#ff9a6c"></path><path d="M64.15,187.72s.09.24.38.58a2.86,2.86,0,0,0,1.6.9c.77.19,1.76.32,2.83.52s2.26.44,3.47.6a2.78,2.78,0,0,0,1.64-.24,3.48,3.48,0,0,0,1.07-1.15l1.63-2.41a14.13,14.13,0,0,1,1.61-2.14,13.85,13.85,0,0,1-1.3,2.35l-1.53,2.46a3.76,3.76,0,0,1-1.23,1.33,3.12,3.12,0,0,1-1.94.31c-1.28-.16-2.43-.44-3.51-.64s-2-.39-2.85-.64a2.9,2.9,0,0,1-1.66-1.13C64.1,188,64.12,187.71,64.15,187.72Z" style="fill:#ff9a6c"></path><path d="M72.17,178.93a1.56,1.56,0,0,1,.28,1.42,2.16,2.16,0,0,1-1,1.43,2.33,2.33,0,0,1-2.22.12l.27-.37a2.08,2.08,0,0,1,.54,2.09l-.4-.27a1.13,1.13,0,0,1,1.22-.11,1.75,1.75,0,0,1,.79.89c.06.13.11.26.16.38h-.49a4.13,4.13,0,0,1,2.58-2.44,3.95,3.95,0,0,1,4.36,1.44,1.45,1.45,0,0,1,.3.64,5.31,5.31,0,0,0-1.93-1.54,3.54,3.54,0,0,0-2.58-.09,3.78,3.78,0,0,0-2.25,2.17l-.25.68-.24-.69a2.26,2.26,0,0,0-.13-.33,1.26,1.26,0,0,0-.55-.64.64.64,0,0,0-.67,0l-.69.6.29-.87a1.63,1.63,0,0,0-.38-1.6l-1.1-1.08,1.37.71a2,2,0,0,0,1.81-.05,1.89,1.89,0,0,0,.89-1.15A3.17,3.17,0,0,0,72.17,178.93Z" style="fill:#ff9a6c"></path><path d="M65.45,178.33a6.8,6.8,0,0,1,2.13,1.49c1.08.94,1.88,1.79,1.79,1.89s-1.05-.56-2.13-1.49S65.35,178.44,65.45,178.33Z" style="fill:#ff9a6c"></path><path d="M65.29,185.9a4.6,4.6,0,0,1,2.07-1.48,4.6,4.6,0,0,1,2.46-.63,10.37,10.37,0,0,1-2.24,1.1A10.54,10.54,0,0,1,65.29,185.9Z" style="fill:#ff9a6c"></path><path d="M71.27,188.18a4.11,4.11,0,0,1-.17-2,4.27,4.27,0,0,1,.34-2c.15,0,.23.91.18,2S71.42,188.19,71.27,188.18Z" style="fill:#ff9a6c"></path><path d="M93.67,184.49a54.21,54.21,0,0,1,5.93,3.9c1.61,1.11,3.09,2.08,4.19,2.73a13.46,13.46,0,0,1,1.77,1.09,6.23,6.23,0,0,1-2-.77,39.28,39.28,0,0,1-4.3-2.62c-1.62-1.11-3-2.18-4.06-3A8.3,8.3,0,0,1,93.67,184.49Z" style="fill:#ff9a6c"></path><path d="M185.38,231.44c-.08-.06.59-.83,1.26-2.28a11.88,11.88,0,0,0,.86-2.66,13.38,13.38,0,0,0,.22-3.41,14.1,14.1,0,0,0-.68-3.35,12.25,12.25,0,0,0-1.21-2.51c-.86-1.35-1.63-2-1.56-2.1s.23.13.58.43a5.43,5.43,0,0,1,.59.59,7.56,7.56,0,0,1,.7.87,11.49,11.49,0,0,1,1.36,2.56,13.48,13.48,0,0,1,.74,3.48,13,13,0,0,1-.27,3.54,10.7,10.7,0,0,1-1,2.72,7,7,0,0,1-.57,1,3.89,3.89,0,0,1-.51.66C185.59,231.29,185.41,231.47,185.38,231.44Z" style="fill:#ff9a6c"></path><path d="M183.05,198.87A43.44,43.44,0,0,1,194.92,224a60.06,60.06,0,0,1-4.65,28.48s35.88-3.57,45.19-15.82c3.91-5.16,11.49-19.92,8.25-33.93-2.81-12.11-16.79-23.74-37.58-13.22S183.05,198.87,183.05,198.87Z" style="fill:#67C38D"></path><path d="M183.05,198.87s.07,0,.19.18l.55.59,2.05,2.27a43.69,43.69,0,0,1,5.89,9.59c.5,1.08.88,2.28,1.36,3.49s.73,2.55,1.09,3.91a46.46,46.46,0,0,1,1,8.88c.09,1.58-.06,3.19-.1,4.84s-.29,3.33-.61,5A68.5,68.5,0,0,1,192.07,248c-.47,1.61-1.06,3.15-1.56,4.63l-.26-.35a105.13,105.13,0,0,0,32.82-7.29,72.2,72.2,0,0,0,9.05-4.41c1-.58,1.78-1.11,2.32-1.43l.61-.36.21-.11-.18.15-.58.41c-.52.34-1.26.9-2.28,1.5a65.88,65.88,0,0,1-9,4.58,102.7,102.7,0,0,1-32.92,7.47l-.39,0,.13-.37c.5-1.47,1.09-3,1.55-4.61A68.77,68.77,0,0,0,194,237.55c.32-1.67.43-3.34.61-5s.2-3.24.12-4.8a46.62,46.62,0,0,0-1-8.8c-.35-1.34-.67-2.65-1.06-3.87s-.82-2.4-1.3-3.47a45.78,45.78,0,0,0-5.72-9.61l-2-2.33-.5-.62C183.09,199,183,198.87,183.05,198.87Z" style="fill:#263238"></path><path d="M115.55,184.76c0-.14,5.55-2.37,12.51-5s12.64-4.63,12.69-4.49-5.55,2.36-12.51,5S115.6,184.89,115.55,184.76Z" style="fill:#263238"></path><path d="M124.92,194.91c-.09-.11,4.13-3.53,9.42-7.62s9.65-7.33,9.74-7.21-4.13,3.52-9.42,7.62S125,195,124.92,194.91Z" style="fill:#263238"></path><path d="M138.79,203.25a3.33,3.33,0,0,1,.37-.88c.27-.55.68-1.33,1.2-2.3,1-1.92,2.54-4.54,4.27-7.39s3.38-5.38,4.61-7.19c.61-.9,1.12-1.63,1.48-2.12a3.19,3.19,0,0,1,.61-.73,25.8,25.8,0,0,1-1.79,3.05c-1.21,2-2.76,4.49-4.47,7.26l-4.39,7.31A25.81,25.81,0,0,1,138.79,203.25Z" style="fill:#263238"></path></g></svg>